<svg width="48" height="48" viewBox="0 0 48 48" fill="none" xmlns="http://www.w3.org/2000/svg">
<path d="M23.3458 6.62166C21.3375 10.0976 6.99278 34.9296 5.35713 37.7943C5.17022 38.2439 5.51495 38.8111 6.00503 38.8199C6.13636 38.8326 7.13927 38.8263 7.33127 38.8275C16.7058 38.8313 32.2214 38.825 41.6213 38.8275C41.7678 38.8275 41.9851 38.8288 41.9952 38.8199C42.0545 38.825 42.1013 38.8009 42.1544 38.7984C42.5624 38.6759 42.8086 38.1959 42.6431 37.7955C42.6039 37.7387 42.6203 37.7312 42.5143 37.5569C37.7537 29.3039 30.8549 17.3665 26.083 9.0972C25.79 8.61221 24.9437 7.10664 24.6544 6.6229C24.3703 6.12907 23.6288 6.12274 23.3446 6.6229L23.3458 6.62166ZM21.3768 5.48482C22.2509 3.94258 24.3525 3.49675 25.7836 4.54768C26.1259 4.8016 26.4088 5.12742 26.6248 5.48482L28.0534 7.95923C32.3062 15.3255 39.0408 26.9899 43.2936 34.3562L44.246 36.0058C44.4064 36.2925 44.5542 36.5098 44.7487 36.9316C44.9027 37.3257 44.9824 37.7513 44.9685 38.177C44.9318 39.4616 44.011 40.64 42.7719 40.9848C42.3703 41.0985 41.8941 41.1036 41.6213 41.0985C32.2025 41.0872 16.721 41.1073 7.33127 41.0985C6.68587 41.0757 5.93812 41.1717 5.2283 40.9836C3.52065 40.5074 2.57073 38.566 3.25281 36.9291C4.93147 33.9028 19.3205 9.07445 21.3768 5.48482Z" fill="url(#paint0_linear_729_7249)"/>
<path d="M19.405 25.7309L23.4204 32.6867C23.678 33.1338 24.3234 33.1338 24.5811 32.6867L28.5964 25.7309C28.8541 25.2837 28.532 24.7255 28.0167 24.7255H19.9861C19.4707 24.7255 19.1474 25.2837 19.4063 25.7309H19.405ZM23.6465 30.3045L21.5801 26.7262C21.4221 26.4534 21.6192 26.1124 21.935 26.1124H26.0678C26.3823 26.1124 26.5793 26.4534 26.4227 26.7262L24.3563 30.3045C24.1984 30.5773 23.8056 30.5773 23.6477 30.3045H23.6465Z" fill="url(#paint1_linear_729_7249)"/>
<path d="M22.1155 6.8491C19.9166 11.9582 18.027 17.8908 19.8812 23.3751C20.1502 24.1305 20.4849 24.8555 20.8992 25.5439L19.7006 26.2449C19.2509 25.4883 18.8732 24.6622 18.5815 23.8235C16.8776 18.8193 18.147 13.4146 19.9722 8.65275C20.2791 7.86709 20.6062 7.0916 20.9472 6.32494L22.1143 6.84786L22.1155 6.8491Z" fill="url(#paint2_linear_729_7249)"/>
<path d="M43.0119 36.5136C39.6862 32.0538 35.4941 27.4511 29.8166 26.3156C29.0284 26.1716 28.2327 26.0983 27.4293 26.1135L27.4218 24.7253C28.3021 24.714 29.2052 24.7998 30.078 24.9666C35.2629 25.9935 39.3098 29.794 42.5205 33.7563C43.0472 34.4144 43.555 35.0864 44.0489 35.7647L43.0119 36.5136Z" fill="url(#paint3_linear_729_7249)"/>
<path d="M6.87274 39.7776C12.3975 39.1271 18.4805 37.7984 22.3025 33.4483C22.8217 32.8382 23.2827 32.1851 23.6717 31.4817L24.8779 32.1688C24.4472 32.9367 23.9205 33.6769 23.3408 34.3489C19.8585 38.3264 14.5447 39.9304 9.50755 40.7299C8.6739 40.8562 7.83908 40.9611 7.00416 41.0495L6.87409 39.7776H6.87274Z" fill="url(#paint4_linear_729_7249)"/>
<path d="M32.466 26.6806L21.583 35.5847L21.0184 34.895L31.3298 25.4028L32.466 26.6806Z" fill="url(#paint5_linear_729_7249)"/>
<path d="M17.5359 37.1307L34.9875 27.2746L35.8796 28.923L17.9859 37.9605L17.5359 37.1307Z" fill="url(#paint6_linear_729_7249)"/>
<path d="M11.8327 38.9383L40.0647 31.3055L40.5679 33.2409L12.0857 39.9128L11.8327 38.9383Z" fill="url(#paint7_linear_729_7249)"/>
<path d="M20.8273 35.66L18.5576 21.7831L19.4372 21.639L22.502 35.3148L20.8273 35.66Z" fill="url(#paint8_linear_729_7249)"/>
<path d="M19.2422 17.5052L19.052 37.5467L17.1785 37.495L18.2986 17.48L19.2422 17.5052Z" fill="url(#paint9_linear_729_7249)"/>
<path d="M20.5285 11.6623L13.0226 39.9284L11.0949 39.3964L19.558 11.3942L20.5285 11.6623Z" fill="url(#paint10_linear_729_7249)"/>
<path d="M18.6947 20.9024L31.8474 25.8752L31.5324 26.7089L18.1562 22.5251L18.6947 20.9024Z" fill="url(#paint11_linear_729_7249)"/>
<path d="M35.2099 28.6071L17.9485 18.4216L18.93 16.8248L35.7035 27.8024L35.2099 28.6071Z" fill="url(#paint12_linear_729_7249)"/>
<path d="M39.6268 32.6425L18.9006 12.0092L20.3251 10.6058L40.3442 31.9361L39.6268 32.6425Z" fill="url(#paint13_linear_729_7249)"/>
<defs>
<linearGradient id="paint0_linear_729_7249" x1="3.03027" y1="-3.98035" x2="19.9331" y2="45.7992" gradientUnits="userSpaceOnUse">
<stop stop-color="#3A9AE8"/>
<stop offset="1" stop-color="#0CAC77"/>
</linearGradient>
<linearGradient id="paint1_linear_729_7249" x1="3.03027" y1="-3.98035" x2="19.9331" y2="45.7992" gradientUnits="userSpaceOnUse">
<stop stop-color="#3A9AE8"/>
<stop offset="1" stop-color="#0CAC77"/>
</linearGradient>
<linearGradient id="paint2_linear_729_7249" x1="3.03027" y1="-3.98035" x2="19.9331" y2="45.7992" gradientUnits="userSpaceOnUse">
<stop stop-color="#3A9AE8"/>
<stop offset="1" stop-color="#0CAC77"/>
</linearGradient>
<linearGradient id="paint3_linear_729_7249" x1="3.03027" y1="-3.98035" x2="19.9331" y2="45.7992" gradientUnits="userSpaceOnUse">
<stop stop-color="#3A9AE8"/>
<stop offset="1" stop-color="#0CAC77"/>
</linearGradient>
<linearGradient id="paint4_linear_729_7249" x1="3.03027" y1="-3.98035" x2="19.9331" y2="45.7992" gradientUnits="userSpaceOnUse">
<stop stop-color="#3A9AE8"/>
<stop offset="1" stop-color="#0CAC77"/>
</linearGradient>
<linearGradient id="paint5_linear_729_7249" x1="3.03027" y1="-3.98035" x2="19.9331" y2="45.7992" gradientUnits="userSpaceOnUse">
<stop stop-color="#3A9AE8"/>
<stop offset="1" stop-color="#0CAC77"/>
</linearGradient>
<linearGradient id="paint6_linear_729_7249" x1="3.03027" y1="-3.98035" x2="19.9331" y2="45.7992" gradientUnits="userSpaceOnUse">
<stop stop-color="#3A9AE8"/>
<stop offset="1" stop-color="#0CAC77"/>
</linearGradient>
<linearGradient id="paint7_linear_729_7249" x1="3.03027" y1="-3.98035" x2="19.9331" y2="45.7992" gradientUnits="userSpaceOnUse">
<stop stop-color="#3A9AE8"/>
<stop offset="1" stop-color="#0CAC77"/>
</linearGradient>
<linearGradient id="paint8_linear_729_7249" x1="3.03027" y1="-3.98035" x2="19.9331" y2="45.7992" gradientUnits="userSpaceOnUse">
<stop stop-color="#3A9AE8"/>
<stop offset="1" stop-color="#0CAC77"/>
</linearGradient>
<linearGradient id="paint9_linear_729_7249" x1="3.03027" y1="-3.98035" x2="19.9331" y2="45.7992" gradientUnits="userSpaceOnUse">
<stop stop-color="#3A9AE8"/>
<stop offset="1" stop-color="#0CAC77"/>
</linearGradient>
<linearGradient id="paint10_linear_729_7249" x1="3.03027" y1="-3.98035" x2="19.9331" y2="45.7992" gradientUnits="userSpaceOnUse">
<stop stop-color="#3A9AE8"/>
<stop offset="1" stop-color="#0CAC77"/>
</linearGradient>
<linearGradient id="paint11_linear_729_7249" x1="3.03027" y1="-3.98035" x2="19.9331" y2="45.7992" gradientUnits="userSpaceOnUse">
<stop stop-color="#3A9AE8"/>
<stop offset="1" stop-color="#0CAC77"/>
</linearGradient>
<linearGradient id="paint12_linear_729_7249" x1="3.03027" y1="-3.98035" x2="19.9331" y2="45.7992" gradientUnits="userSpaceOnUse">
<stop stop-color="#3A9AE8"/>
<stop offset="1" stop-color="#0CAC77"/>
</linearGradient>
<linearGradient id="paint13_linear_729_7249" x1="3.03027" y1="-3.98035" x2="19.9331" y2="45.7992" gradientUnits="userSpaceOnUse">
<stop stop-color="#3A9AE8"/>
<stop offset="1" stop-color="#0CAC77"/>
</linearGradient>
</defs>
</svg>
