<svg width="48" height="48" viewBox="0 0 48 48" fill="none" xmlns="http://www.w3.org/2000/svg">
<path fill-rule="evenodd" clip-rule="evenodd" d="M13.6778 12.2197C16.6613 10.4049 20.1908 9 23.9999 9C27.8091 9 31.3386 10.4049 34.3221 12.2197C37.3125 14.0386 39.8695 16.3389 41.7724 18.3044C44.883 21.5172 44.8829 26.4828 41.7724 29.6956C39.8695 31.6611 37.3125 33.9614 34.3221 35.7803C31.3386 37.5951 27.8091 39 23.9999 39C20.1908 39 16.6613 37.5951 13.6778 35.7803C10.6873 33.9614 8.13037 31.6611 6.22742 29.6956C3.1169 26.4828 3.1169 21.5172 6.22742 18.3044C8.13037 16.3389 10.6873 14.0386 13.6778 12.2197Z" fill="url(#paint0_linear_761_7171)"/>
<circle cx="24" cy="24" r="7" fill="url(#paint1_linear_761_7171)"/>
<defs>
<linearGradient id="paint0_linear_761_7171" x1="24.7315" y1="9.36114" x2="24.7315" y2="38.9972" gradientUnits="userSpaceOnUse">
<stop stop-color="#5BBAFF"/>
<stop offset="1" stop-color="#ACE1FF"/>
</linearGradient>
<linearGradient id="paint1_linear_761_7171" x1="29.7273" y1="34.5" x2="20.8182" y2="14.7727" gradientUnits="userSpaceOnUse">
<stop stop-color="#2BBFFF"/>
<stop offset="1" stop-color="#0167FF"/>
</linearGradient>
</defs>
</svg>
