<svg width="48" height="48" viewBox="0 0 48 48" fill="none" xmlns="http://www.w3.org/2000/svg">
<path d="M40.4116 24C40.4116 14.9361 33.0638 7.58841 24 7.58841C14.9361 7.58842 7.58842 14.9361 7.58841 24C7.58841 33.0638 14.9361 40.4116 24 40.4116C33.0638 40.4116 40.4116 33.0638 40.4116 24ZM44 24C44 35.0457 35.0457 44 24 44C12.9543 44 4 35.0457 4 24C4.00001 12.9543 12.9543 4.00001 24 4C35.0457 4 44 12.9543 44 24Z" fill="url(#paint0_linear_722_7338)"/>
<path d="M30.1295 23.9996C30.1295 20.6143 27.3852 17.8699 23.9999 17.8699C20.6145 17.8699 17.8702 20.6143 17.8702 23.9996C17.8702 27.3849 20.6145 30.1292 23.9999 30.1292C27.3851 30.1292 30.1295 27.3849 30.1295 23.9996ZM31.6674 23.9996C31.6674 28.2343 28.2345 31.6671 23.9999 31.6671C19.7652 31.6671 16.3323 28.2343 16.3323 23.9996C16.3323 19.7649 19.7652 16.332 23.9999 16.332C28.2345 16.332 31.6674 19.7649 31.6674 23.9996Z" fill="url(#paint1_linear_722_7338)"/>
<path d="M34.7879 23.9997C34.7879 18.0416 29.958 13.2116 23.9999 13.2116C18.0418 13.2116 13.2118 18.0416 13.2118 23.9997C13.2118 29.9577 18.0418 34.7877 23.9999 34.7877C29.958 34.7876 34.7879 29.9577 34.7879 23.9997ZM37.3511 23.9997C37.351 31.3733 31.3735 37.3508 23.9999 37.3508C16.6262 37.3508 10.6487 31.3733 10.6487 23.9997C10.6487 16.626 16.6262 10.6484 23.9999 10.6484C31.3736 10.6484 37.3511 16.626 37.3511 23.9997Z" fill="url(#paint2_linear_722_7338)"/>
<defs>
<linearGradient id="paint0_linear_722_7338" x1="10" y1="-1.625" x2="45.2516" y2="40.4109" gradientUnits="userSpaceOnUse">
<stop stop-color="#FFA553"/>
<stop offset="1" stop-color="#FF4869"/>
</linearGradient>
<linearGradient id="paint1_linear_722_7338" x1="18.6325" y1="14.1755" x2="32.1472" y2="30.2911" gradientUnits="userSpaceOnUse">
<stop stop-color="#FFA553"/>
<stop offset="1" stop-color="#FF4869"/>
</linearGradient>
<linearGradient id="paint2_linear_722_7338" x1="14.654" y1="6.89342" x2="38.1866" y2="34.9548" gradientUnits="userSpaceOnUse">
<stop stop-color="#FFA553"/>
<stop offset="1" stop-color="#FF4869"/>
</linearGradient>
</defs>
</svg>
