<svg width="48" height="48" viewBox="0 0 48 48" fill="none" xmlns="http://www.w3.org/2000/svg">
<path d="M23.9999 24V17H42.7407C39.9032 9.40666 32.583 4 23.9999 4C17.6757 4 12.037 6.93539 8.37207 11.518L15.9999 24H23.9999Z" fill="url(#paint0_linear_754_7206)"/>
<path d="M23.9999 43.9996C35.0456 43.9996 43.9999 35.0453 43.9999 23.9996C43.9999 21.5371 43.5549 19.1786 42.7409 17H27L23 24.4545L29.0621 27.9545L20.0264 43.6049C21.3106 43.8638 22.6394 43.9996 23.9999 43.9996Z" fill="url(#paint1_linear_754_7206)"/>
<path d="M20.1044 43.6198C10.9235 41.8073 4 33.7117 4 23.999C4 19.1315 5.73884 14.6701 8.62923 11.2021L16.9904 25.684L23.0525 22.184L28.5 29.5001L20.1044 43.6198Z" fill="url(#paint2_linear_754_7206)"/>
<circle cx="24" cy="24" r="8.5" fill="url(#paint3_linear_754_7206)" stroke="url(#paint4_linear_754_7206)" stroke-width="3"/>
<defs>
<linearGradient id="paint0_linear_754_7206" x1="31.4352" y1="27.9655" x2="27.488" y2="-0.753573" gradientUnits="userSpaceOnUse">
<stop stop-color="#D80000"/>
<stop offset="1" stop-color="#FF7A00"/>
</linearGradient>
<linearGradient id="paint1_linear_754_7206" x1="44.2996" y1="47.3746" x2="14.4529" y2="32.161" gradientUnits="userSpaceOnUse">
<stop stop-color="#FFA011"/>
<stop offset="1" stop-color="#FFE351"/>
</linearGradient>
<linearGradient id="paint2_linear_754_7206" x1="-0.351988" y1="38.6761" x2="39.9325" y2="22.6751" gradientUnits="userSpaceOnUse">
<stop stop-color="#57B74E"/>
<stop offset="1" stop-color="#0D8C66"/>
</linearGradient>
<linearGradient id="paint3_linear_754_7206" x1="29.7273" y1="34.5" x2="20.8182" y2="14.7727" gradientUnits="userSpaceOnUse">
<stop stop-color="#2BBFFF"/>
<stop offset="1" stop-color="#0167FF"/>
</linearGradient>
<linearGradient id="paint4_linear_754_7206" x1="20.2667" y1="32.3125" x2="29.9663" y2="13.1943" gradientUnits="userSpaceOnUse">
<stop stop-color="#EFFFEB"/>
<stop offset="1" stop-color="#B4FFE8"/>
</linearGradient>
</defs>
</svg>
