<svg width="48" height="48" viewBox="0 0 48 48" fill="none" xmlns="http://www.w3.org/2000/svg">
<path d="M16.5501 31.3453C17.6297 32.0193 32.4028 41.282 32.4028 41.282C32.4028 41.282 33.9476 42.5144 35.5048 41.75C37.0611 40.9857 36.9981 39.4389 36.9981 39.2365V18.7784C36.9981 18.7784 37.0558 17.5506 36.5382 16.4402C35.9549 15.1879 35.1621 14.5247 34.2983 13.9854C33.4344 13.446 19.3076 4.57446 19.3076 4.57446C19.3076 4.57446 18.0514 3.56344 16.551 4.2239C15.0497 4.88436 15 6.35165 15 6.73745V28.8606C15.0107 29.194 15.0488 29.6367 15.1722 29.8843C15.3871 30.3171 15.4705 30.6704 16.5501 31.3453ZM21.6044 13.9844L30.3919 19.4787V31.9289L21.6044 26.4926V13.9844Z" fill="url(#paint0_linear_723_7394)"/>
<path d="M11 30.8317C11.0111 31.1651 11.051 31.6358 11.1801 31.8843C11.4056 32.3171 11.4928 32.6713 12.6214 33.3453C13.75 34.0193 29.194 43.282 29.194 43.282C29.194 43.282 30.809 44.5144 32.4369 43.75C34.0639 42.9856 33.998 41.4389 33.998 41.2365V20.7784C33.998 20.7784 34.0583 19.5506 33.5172 18.4402C32.9074 17.1879 32.0786 16.5247 31.1756 15.9854C30.2725 15.446 15.5042 6.57446 15.5042 6.57446C15.5042 6.57446 14.1909 5.56344 12.6224 6.2239C11.052 6.88436 11 8.35165 11 8.73745V30.8317ZM17.9052 15.9854L27.0918 21.4796V33.9298L17.9052 28.4935V15.9854Z" fill="url(#paint1_linear_723_7394)"/>
<defs>
<linearGradient id="paint0_linear_723_7394" x1="35" y1="51.5" x2="3.73625" y2="11.4213" gradientUnits="userSpaceOnUse">
<stop stop-color="#25C4E7"/>
<stop offset="1" stop-color="#3B53CE"/>
</linearGradient>
<linearGradient id="paint1_linear_723_7394" x1="14.45" y1="0.65625" x2="46.7278" y2="23.9527" gradientUnits="userSpaceOnUse">
<stop stop-color="#FFA553"/>
<stop offset="1" stop-color="#FF4869"/>
</linearGradient>
</defs>
</svg>
