<svg width="48" height="48" viewBox="0 0 48 48" fill="none" xmlns="http://www.w3.org/2000/svg">
<g clip-path="url(#clip0_722_7332)">
<path d="M32 41.6182V6.5H32.7065C32.8982 6.5 33.0858 6.55513 33.2471 6.65882L38.6223 10.1143C39.4809 10.6663 40 11.6171 40 12.6379V35.3373C40 36.3716 39.4671 37.333 38.59 37.8813L33 41.375C33 41.375 32.5547 41.6182 32 41.6182Z" fill="url(#paint0_linear_722_7332)"/>
<path d="M18.33 27.8065L11.1133 34.0391C10.4391 34.6213 9.48103 34.741 8.6843 34.3427C7.3529 33.677 7.04915 31.9109 8.08164 30.8387L14.666 24.0005M18.136 20.3965L31 7.03889C31 7.03889 31.5 6.5 32 6.50098V16.0005L22.41 24.2825" fill="url(#paint1_linear_722_7332)"/>
<path d="M22.41 23.718L11.1133 13.9615C10.4391 13.3793 9.48102 13.2595 8.68429 13.6579C7.35289 14.3236 7.04914 16.0896 8.08162 17.1619L14.666 24M14.666 24L31.3237 41.2977C31.3237 41.2977 31.6211 41.6172 32 41.6172V32L22.41 23.718" fill="url(#paint2_linear_722_7332)"/>
</g>
<defs>
<linearGradient id="paint0_linear_722_7332" x1="36" y1="1.48312" x2="15.6508" y2="15.7701" gradientUnits="userSpaceOnUse">
<stop stop-color="#4EFFF4"/>
<stop offset="1" stop-color="#4392EF"/>
</linearGradient>
<linearGradient id="paint1_linear_722_7332" x1="33.5" y1="5.5" x2="7.98328" y2="34.2596" gradientUnits="userSpaceOnUse">
<stop stop-color="#2BBFFF"/>
<stop offset="1" stop-color="#0167FF"/>
</linearGradient>
<linearGradient id="paint2_linear_722_7332" x1="7.5" y1="13" x2="29.7944" y2="43.6066" gradientUnits="userSpaceOnUse">
<stop stop-color="#2BBFFF"/>
<stop offset="1" stop-color="#0167FF"/>
</linearGradient>
<clipPath id="clip0_722_7332">
<rect width="48" height="48" fill="white"/>
</clipPath>
</defs>
</svg>
