<svg width="48" height="48" viewBox="0 0 48 48" fill="none" xmlns="http://www.w3.org/2000/svg">
<path d="M30 12C30 11.4696 29.7891 10.961 29.4141 10.5859C29.039 10.2109 28.5304 10 28 10C27.4696 10 26.961 10.2109 26.5859 10.5859C26.2109 10.961 26 11.4696 26 12V22H30V12ZM36.3906 18.0391C36.0027 17.9619 35.5998 18.001 35.2344 18.1523C34.8692 18.3037 34.5576 18.5601 34.3379 18.8887C34.1181 19.2176 34 19.6044 34 20V22H36C36.3956 22 36.7824 21.8819 37.1113 21.6621C37.4399 21.4424 37.6963 21.1308 37.8477 20.7656C37.999 20.4002 38.0381 19.9973 37.9609 19.6094C37.8837 19.2216 37.6936 18.8655 37.4141 18.5859C37.1345 18.3064 36.7784 18.1163 36.3906 18.0391ZM34 14.3457C35.0153 13.9866 36.1098 13.9045 37.1699 14.1152C38.3338 14.3467 39.4031 14.9187 40.2422 15.7578C41.0813 16.5969 41.6533 17.6662 41.8848 18.8301C42.1161 19.9938 41.997 21.2007 41.543 22.2969C41.0889 23.3927 40.3201 24.3292 39.334 24.9883C38.3473 25.6476 37.1867 26 36 26H24C22.8954 26 22 25.1046 22 24V12C22 10.4087 22.6326 8.88303 23.7578 7.75781C24.883 6.63259 26.4087 6 28 6C29.5913 6 31.117 6.63259 32.2422 7.75781C33.3674 8.88303 34 10.4087 34 12V14.3457Z" fill="url(#paint0_linear_757_7861)"/>
<path d="M38 28C38 27.4696 37.7891 26.961 37.4141 26.5859C37.039 26.2109 36.5304 26 36 26H26V30H36C36.5304 30 37.039 29.7891 37.4141 29.4141C37.7891 29.039 38 28.5304 38 28ZM26 36C26 36.3956 26.1181 36.7824 26.3379 37.1113C26.5576 37.4399 26.8692 37.6963 27.2344 37.8477C27.5998 37.999 28.0027 38.0381 28.3906 37.9609C28.7784 37.8837 29.1345 37.6936 29.4141 37.4141C29.6936 37.1345 29.8837 36.7784 29.9609 36.3906C30.0381 36.0027 29.999 35.5998 29.8477 35.2344C29.6963 34.8692 29.4399 34.5576 29.1113 34.3379C28.7824 34.1181 28.3956 34 28 34H26V36ZM42 28C42 29.5913 41.3674 31.117 40.2422 32.2422C39.117 33.3674 37.5913 34 36 34H33.6523C34.0117 35.0155 34.0956 36.1096 33.8848 37.1699C33.6533 38.3338 33.0813 39.4031 32.2422 40.2422C31.4031 41.0813 30.3338 41.6533 29.1699 41.8848C28.0062 42.1161 26.7993 41.997 25.7031 41.543C24.6073 41.0889 23.6708 40.3201 23.0117 39.334C22.3524 38.3473 22 37.1867 22 36V24C22 22.8954 22.8954 22 24 22H36C37.5913 22 39.117 22.6326 40.2422 23.7578C41.3674 24.883 42 26.4087 42 28Z" fill="url(#paint1_linear_757_7861)"/>
<path d="M22.0001 26H18.0001V36C18.0001 36.5304 18.211 37.039 18.5861 37.4141C18.9611 37.7891 19.4697 38 20.0001 38C20.5305 38 21.0391 37.7891 21.4142 37.4141C21.7893 37.039 22.0001 36.5304 22.0001 36V26ZM12.0001 26C11.6046 26 11.2177 26.1181 10.8888 26.3379C10.5602 26.5576 10.3038 26.8692 10.1525 27.2344C10.0011 27.5998 9.96201 28.0027 10.0392 28.3906C10.1164 28.7784 10.3065 29.1345 10.5861 29.4141C10.8656 29.6936 11.2217 29.8837 11.6095 29.9609C11.9975 30.0381 12.4003 29.999 12.7657 29.8477C13.1309 29.6963 13.4425 29.4399 13.6622 29.1113C13.882 28.7824 14.0001 28.3956 14.0001 28V26H12.0001ZM26.0001 36C26.0001 37.5913 25.3675 39.117 24.2423 40.2422C23.1171 41.3674 21.5914 42 20.0001 42C18.4088 42 16.8831 41.3674 15.7579 40.2422C14.6327 39.117 14.0001 37.5913 14.0001 36V33.6523C12.9846 34.0117 11.8905 34.0956 10.8302 33.8848C9.66631 33.6533 8.59704 33.0813 7.75793 32.2422C6.91882 31.4031 6.34686 30.3338 6.11535 29.1699C5.884 28.0062 6.0031 26.7993 6.45715 25.7031C6.91122 24.6073 7.67998 23.6708 8.66613 23.0117C9.65283 22.3524 10.8134 22 12.0001 22H24.0001C25.1047 22 26.0001 22.8954 26.0001 24V36Z" fill="url(#paint2_linear_757_7861)"/>
<path d="M22 11.9999C22 11.6043 21.8819 11.2174 21.6621 10.8885C21.4424 10.56 21.1308 10.3035 20.7656 10.1522C20.4002 10.0008 19.9973 9.96177 19.6094 10.0389C19.2216 10.1162 18.8655 10.3062 18.5859 10.5858C18.3064 10.8654 18.1163 11.2215 18.0391 11.6092C17.9619 11.9972 18.001 12.4 18.1523 12.7655C18.3037 13.1306 18.5601 13.4423 18.8887 13.662C19.2176 13.8817 19.6044 13.9999 20 13.9999H22V11.9999ZM10 19.9999C10 20.5303 10.2109 21.0389 10.5859 21.4139C10.961 21.789 11.4696 21.9999 12 21.9999H22V17.9999H12C11.4696 17.9999 10.961 18.2107 10.5859 18.5858C10.2109 18.9609 10 19.4694 10 19.9999ZM26 23.9999C26 25.1044 25.1046 25.9999 24 25.9999H12C10.4087 25.9999 8.88303 25.3673 7.75781 24.2421C6.63259 23.1168 6 21.5912 6 19.9999C6 18.4086 6.63259 16.8829 7.75781 15.7577C8.88303 14.6325 10.4087 13.9999 12 13.9999H14.3477C13.9883 12.9844 13.9044 11.8903 14.1152 10.83C14.3467 9.66606 14.9187 8.5968 15.7578 7.75769C16.5969 6.91857 17.6662 6.34662 18.8301 6.11511C19.9938 5.88376 21.2007 6.00286 22.2969 6.4569C23.3927 6.91097 24.3292 7.67973 24.9883 8.66589C25.6476 9.65258 26 10.8132 26 11.9999V23.9999Z" fill="url(#paint3_linear_757_7861)"/>
<defs>
<linearGradient id="paint0_linear_757_7861" x1="30" y1="28" x2="32.3039" y2="5.87545" gradientUnits="userSpaceOnUse">
<stop stop-color="#87C578"/>
<stop offset="1" stop-color="#31E4AF"/>
</linearGradient>
<linearGradient id="paint1_linear_757_7861" x1="42.25" y1="44.4999" x2="18.6563" y2="30.9555" gradientUnits="userSpaceOnUse">
<stop stop-color="#FFA011"/>
<stop offset="1" stop-color="#FFE351"/>
</linearGradient>
<linearGradient id="paint2_linear_757_7861" x1="9.00023" y1="19.1875" x2="26.626" y2="40.2053" gradientUnits="userSpaceOnUse">
<stop stop-color="#FFA553"/>
<stop offset="1" stop-color="#FF4869"/>
</linearGradient>
<linearGradient id="paint3_linear_757_7861" x1="16" y1="3.14287" x2="8.76599" y2="25.4384" gradientUnits="userSpaceOnUse">
<stop stop-color="#4EFFF4"/>
<stop offset="1" stop-color="#4392EF"/>
</linearGradient>
</defs>
</svg>
