<svg width="48" height="48" viewBox="0 0 48 48" fill="none" xmlns="http://www.w3.org/2000/svg">
<path d="M7 35C7 33.8954 7.89543 33 9 33H39C40.1046 33 41 33.8954 41 35V38C41 41.3137 38.3137 44 35 44H13C9.68629 44 7 41.3137 7 38V35Z" fill="url(#paint0_linear_29_6479)"/>
<rect x="7" y="6" width="34" height="27" rx="6" fill="url(#paint1_linear_29_6479)"/>
<path d="M32 12L16 12C14.3431 12 13 13.3431 13 15L13 36L35 36L35 15C35 13.3431 33.6569 12 32 12Z" fill="url(#paint2_linear_29_6479)"/>
<path d="M34 16L14 16C12.3431 16 11 17.3431 11 19L11 34L37 34V19C37 17.3431 35.6569 16 34 16Z" fill="url(#paint3_linear_29_6479)"/>
<path fill-rule="evenodd" clip-rule="evenodd" d="M12 4C7.58172 4 4 7.58172 4 12V31C4 35.4183 7.58172 39 12 39H36C40.4183 39 44 35.4183 44 31V12C44 7.58172 40.4183 4 36 4H12ZM11 26H17.7368C18.4345 26 19 26.5655 19 27.2632C19 29.8792 21.1208 32 23.7368 32H24.2632C26.8792 32 29 29.8792 29 27.2632C29 26.5655 29.5655 26 30.2632 26H37C38.1046 26 39 25.1046 39 24V12C39 10.3431 37.6569 9 36 9H12C10.3431 9 9 10.3431 9 12V24C9 25.1046 9.89543 26 11 26Z" fill="url(#paint4_linear_29_6479)"/>
<defs>
<linearGradient id="paint0_linear_29_6479" x1="7" y1="30.6429" x2="9.01024" y2="46.8423" gradientUnits="userSpaceOnUse">
<stop stop-color="#3360FF"/>
<stop offset="1" stop-color="#193F9F"/>
</linearGradient>
<linearGradient id="paint1_linear_29_6479" x1="7" y1="0.214285" x2="18.2537" y2="37.161" gradientUnits="userSpaceOnUse">
<stop stop-color="#3360FF"/>
<stop offset="1" stop-color="#193F9F"/>
</linearGradient>
<linearGradient id="paint2_linear_29_6479" x1="24.4003" y1="12.2889" x2="24.4003" y2="35.9978" gradientUnits="userSpaceOnUse">
<stop stop-color="#5BBAFF"/>
<stop offset="1" stop-color="#ACE1FF"/>
</linearGradient>
<linearGradient id="paint3_linear_29_6479" x1="24.473" y1="16.2167" x2="24.473" y2="33.9983" gradientUnits="userSpaceOnUse">
<stop stop-color="#8FD0FF"/>
<stop offset="1" stop-color="#E7F6FF"/>
</linearGradient>
<linearGradient id="paint4_linear_29_6479" x1="44" y1="47.2031" x2="9.82906" y2="4.18135" gradientUnits="userSpaceOnUse">
<stop stop-color="#3662FD"/>
<stop offset="1" stop-color="#8673FF"/>
</linearGradient>
</defs>
</svg>
