<svg width="48" height="48" viewBox="0 0 48 48" fill="none" xmlns="http://www.w3.org/2000/svg">
<path fill-rule="evenodd" clip-rule="evenodd" d="M35.7527 7.8171L35.9634 12.0623C39.4048 15.8643 40.7631 21.2488 39.05 26.3093C36.4927 33.8636 28.0603 37.8346 20.2156 35.1789C12.3709 32.5235 8.08455 24.2466 10.6418 16.6924C12.3606 11.615 16.7337 8.15628 21.7984 7.24053L24.5348 4.00726C15.9975 3.77619 7.94302 9.07544 5.06117 17.5885C1.52038 28.0482 7.12917 39.3978 17.5888 42.9388C28.0484 46.4797 39.3979 40.8707 42.9389 30.4109C45.8159 21.9116 42.6519 12.8247 35.7527 7.8171Z" fill="url(#paint0_linear_723_7435)"/>
<path fill-rule="evenodd" clip-rule="evenodd" d="M30.8497 20.3432L30.7048 14.4088L30.5887 10.9939L30.51 8.03528C30.51 8.03528 30.5263 6.60893 30.4766 6.27365C30.4662 6.20304 30.444 6.14558 30.4175 6.09566L30.4075 6.07448L30.3961 6.05622C30.3415 5.96223 30.2553 5.88553 30.144 5.84779C30.0303 5.80932 29.9125 5.81881 29.8102 5.86289L29.8039 5.86556L29.7686 5.88358C29.7201 5.9072 29.6707 5.93764 29.6225 5.98439C29.3793 6.22057 28.5259 7.36374 28.5259 7.36374L26.6663 9.66591L24.4997 12.308L20.7798 16.9342C20.7798 16.9342 19.0728 19.0647 19.45 21.6872C19.8272 24.3096 21.7768 25.5872 23.2893 26.0991C24.8018 26.6112 27.1265 26.7806 29.0192 24.9266C30.9118 23.0726 30.8497 20.3432 30.8497 20.3432Z" fill="url(#paint1_linear_723_7435)"/>
<defs>
<linearGradient id="paint0_linear_723_7435" x1="40.3636" y1="54" x2="14.9091" y2="-2.36363" gradientUnits="userSpaceOnUse">
<stop stop-color="#25C4E7"/>
<stop offset="1" stop-color="#3B53CE"/>
</linearGradient>
<linearGradient id="paint1_linear_723_7435" x1="40.3636" y1="54" x2="14.9091" y2="-2.36363" gradientUnits="userSpaceOnUse">
<stop stop-color="#25C4E7"/>
<stop offset="1" stop-color="#3B53CE"/>
</linearGradient>
</defs>
</svg>
