<svg width="48" height="48" viewBox="0 0 48 48" fill="none" xmlns="http://www.w3.org/2000/svg">
<g clip-path="url(#clip0_43_5135)">
<path d="M21.1382 37.8487C19.1048 39.882 16.4321 41.1095 13.7079 41.261L12.5046 41.3279C12.2789 41.3405 12.0575 41.4421 11.889 41.6106L11.2539 42.2457C9.56019 43.9394 6.95882 44.0841 5.44358 42.5689C3.92833 41.0536 4.07301 38.4523 5.76672 36.7585L6.40186 36.1234C6.57031 35.955 6.67199 35.7335 6.68454 35.5079L6.75147 34.3045C6.90297 31.5804 8.13041 28.9077 10.1638 26.8743L26.9763 10.0615L37.9507 21.0359L21.1382 37.8487Z" fill="url(#paint0_linear_43_5135)"/>
<path fill-rule="evenodd" clip-rule="evenodd" d="M30.1716 6.48524C33.2958 3.36104 38.3611 3.36104 41.4853 6.48524C44.6095 9.60943 44.6095 14.6747 41.4853 17.7989L38.6569 20.6274C38.2663 21.0179 38.2663 21.6511 38.6569 22.0416L39.364 22.7487C40.145 23.5297 40.145 24.7961 39.364 25.5771C38.5829 26.3582 37.3166 26.3582 36.5355 25.5771L22.3934 11.435C21.6124 10.6539 21.6124 9.3876 22.3934 8.60656C23.1745 7.82551 24.4408 7.82551 25.2218 8.60656L25.9289 9.31366C26.3195 9.70419 26.9526 9.70419 27.3432 9.31366L30.1716 6.48524Z" fill="url(#paint1_linear_43_5135)"/>
</g>
<defs>
<linearGradient id="paint0_linear_43_5135" x1="32.338" y1="16.0737" x2="5.64567" y2="42.766" gradientUnits="userSpaceOnUse">
<stop stop-color="#5BBAFF"/>
<stop offset="1" stop-color="#ACE1FF"/>
</linearGradient>
<linearGradient id="paint1_linear_43_5135" x1="25.1107" y1="1.04541" x2="44.5175" y2="24.187" gradientUnits="userSpaceOnUse">
<stop stop-color="#FFA553"/>
<stop offset="1" stop-color="#FF4869"/>
</linearGradient>
<clipPath id="clip0_43_5135">
<rect width="48" height="48" fill="white"/>
</clipPath>
</defs>
</svg>
