<svg width="48" height="48" viewBox="0 0 48 48" fill="none" xmlns="http://www.w3.org/2000/svg">
<path fill-rule="evenodd" clip-rule="evenodd" d="M21.8523 6.16772C24.2145 5.64227 27.4951 5 29.6377 5C33.6697 5 38.2625 7.07343 40.6802 10.8178C42.4914 13.6228 42.9561 15.1908 43.5318 17.1336C43.6484 17.5272 43.7696 17.9363 43.9076 18.3742L43.9107 18.384L43.9136 18.3938C45.7078 24.3017 46.4257 30.0408 45.5897 34.4333C45.169 36.6436 44.3248 38.6666 42.8669 40.1563C41.3635 41.6924 39.3632 42.5 37 42.5C35.4093 42.5 33.9957 42.2073 32.786 41.5727C31.9491 41.1337 31.2623 40.5583 30.7064 39.8867H24.2174C23.8572 39.8867 23.3526 39.9053 22.7554 39.9272C21.3729 39.9781 19.4945 40.0472 17.7664 39.9463C15.2639 39.8003 12.1948 39.2934 10.0808 37.4238C6.16192 33.9579 4.07814 28.3437 3.33327 23.925C2.79331 20.7219 5.18511 18.1764 7.98841 17.6969L12.0418 17.0036C12.3543 16.9502 12.6229 16.7517 12.7658 16.4687L15.3931 11.2653C16.6752 8.72611 19.0002 6.80212 21.8523 6.16772Z" fill="url(#paint0_linear_760_7868)"/>
<path d="M18 20.9565C18 20.9565 19 20 20 20C21 20 22 20.9565 22 20.9565" stroke="url(#paint1_linear_760_7868)" stroke-width="4" stroke-linecap="round"/>
<path fill-rule="evenodd" clip-rule="evenodd" d="M3.94361 26.6889C3.68414 25.7379 3.48201 24.8079 3.33327 23.9255C2.79331 20.7224 5.18511 18.1769 7.98841 17.6974L8.99993 17.5244V21.0005C8.99993 24.089 6.31709 25.9852 3.94361 26.6889Z" fill="url(#paint2_linear_760_7868)"/>
<path fill-rule="evenodd" clip-rule="evenodd" d="M34.3115 11.5106C37.1826 10.4293 41.0241 11.2571 42.4634 14.6137C42.853 15.5223 43.1395 16.4306 43.433 17.3608C43.5554 17.7488 43.679 18.1407 43.8118 18.538L43.8152 18.5483L43.8186 18.5585C45.7507 24.5532 46.5283 30.3897 45.6244 34.8648C45.1683 37.1228 44.2543 39.1743 42.6968 40.6738C41.1025 42.2087 39.0038 43.0001 36.5337 43.0001C33.6529 43.0001 31.406 42.1332 29.8728 40.3557C28.4151 38.6658 27.8643 36.4438 27.6554 34.2861C27.4447 32.109 27.5581 29.6807 27.6828 27.3686C27.6928 27.1833 27.7029 26.9986 27.7129 26.8145C27.8315 24.6416 27.9451 22.561 27.8599 20.631C27.7137 17.3207 29.319 13.3908 32.9658 12.0174L34.3115 11.5106Z" fill="url(#paint3_linear_760_7868)"/>
<defs>
<linearGradient id="paint0_linear_760_7868" x1="46.4705" y1="47.1875" x2="-0.444481" y2="16.535" gradientUnits="userSpaceOnUse">
<stop stop-color="#FFA011"/>
<stop offset="1" stop-color="#FFE351"/>
</linearGradient>
<linearGradient id="paint1_linear_760_7868" x1="20.5" y1="24.5" x2="21.6433" y2="17.2595" gradientUnits="userSpaceOnUse">
<stop stop-color="#914C1A"/>
<stop offset="1" stop-color="#D98200"/>
</linearGradient>
<linearGradient id="paint2_linear_760_7868" x1="6.84618" y1="31.2712" x2="3.66964" y2="12.8571" gradientUnits="userSpaceOnUse">
<stop stop-color="#914C1A"/>
<stop offset="1" stop-color="#D98200"/>
</linearGradient>
<linearGradient id="paint3_linear_760_7868" x1="39.0766" y1="58.968" x2="27.1371" y2="-4.87637" gradientUnits="userSpaceOnUse">
<stop stop-color="#914C1A"/>
<stop offset="1" stop-color="#D98200"/>
</linearGradient>
</defs>
</svg>
