<svg width="48" height="48" viewBox="0 0 48 48" fill="none" xmlns="http://www.w3.org/2000/svg">
<path d="M32 4C38.6274 4 44 9.37258 44 16V32C44 38.6274 38.6274 44 32 44H16C9.37258 44 4 38.6274 4 32V16C4 9.37258 9.37258 4 16 4H32ZM24 13C17.9249 13 13 17.9249 13 24C13 30.0751 17.9249 35 24 35C30.0751 35 35 30.0751 35 24C35 17.9249 30.0751 13 24 13ZM24 17C27.866 17 31 20.134 31 24C31 27.866 27.866 31 24 31C20.134 31 17 27.866 17 24C17 20.134 20.134 17 24 17ZM35.5 9C34.1193 9 33 10.1193 33 11.5C33 12.8807 34.1193 14 35.5 14C36.8807 14 38 12.8807 38 11.5C38 10.1193 36.8807 9 35.5 9Z" fill="url(#paint0_linear_738_7907)"/>
<path d="M32 4C38.6274 4 44 9.37258 44 16V32C44 38.6274 38.6274 44 32 44H16C9.37258 44 4 38.6274 4 32V16C4 9.37258 9.37258 4 16 4H32ZM24 13C17.9249 13 13 17.9249 13 24C13 30.0751 17.9249 35 24 35C30.0751 35 35 30.0751 35 24C35 17.9249 30.0751 13 24 13ZM24 17C27.866 17 31 20.134 31 24C31 27.866 27.866 31 24 31C20.134 31 17 27.866 17 24C17 20.134 20.134 17 24 17ZM35.5 9C34.1193 9 33 10.1193 33 11.5C33 12.8807 34.1193 14 35.5 14C36.8807 14 38 12.8807 38 11.5C38 10.1193 36.8807 9 35.5 9Z" fill="url(#paint1_linear_738_7907)"/>
<defs>
<linearGradient id="paint0_linear_738_7907" x1="9" y1="6" x2="42.5" y2="44" gradientUnits="userSpaceOnUse">
<stop stop-color="#B61BFF"/>
<stop offset="1" stop-color="#FF1313" stop-opacity="0.99"/>
</linearGradient>
<linearGradient id="paint1_linear_738_7907" x1="18" y1="48" x2="39.5" y2="6" gradientUnits="userSpaceOnUse">
<stop stop-color="#FF9900"/>
<stop offset="0.548077" stop-color="#FF9900" stop-opacity="0"/>
</linearGradient>
</defs>
</svg>
