<svg width="48" height="48" viewBox="0 0 48 48" fill="none" xmlns="http://www.w3.org/2000/svg">
<path d="M41.9998 12L41.9998 36C41.9998 39.3137 39.3135 42 35.9998 42L11.9998 42C8.68605 42 5.99975 39.3137 5.99975 36L5.99976 12C5.99976 8.68629 8.68605 6 11.9998 6L35.9998 6C39.3135 6 41.9998 8.68629 41.9998 12Z" fill="url(#paint0_linear_665_8795)" stroke="url(#paint1_linear_665_8795)" stroke-width="4"/>
<path d="M4 24H14.4887C14.8098 24 15.1114 23.8458 15.2994 23.5855L21.5 15L30 33L34.7142 24.5144C34.8906 24.1969 35.2252 24 35.5884 24H44" stroke="url(#paint2_linear_665_8795)" stroke-width="5" stroke-linecap="round" stroke-linejoin="round"/>
<defs>
<linearGradient id="paint0_linear_665_8795" x1="53.9998" y1="30.5" x2="10.1051" y2="18.9167" gradientUnits="userSpaceOnUse">
<stop stop-color="#001D86"/>
<stop offset="1" stop-color="#71479B"/>
</linearGradient>
<linearGradient id="paint1_linear_665_8795" x1="-5.37525" y1="44" x2="38.5867" y2="4.0941" gradientUnits="userSpaceOnUse">
<stop stop-color="#819CFF"/>
<stop offset="1" stop-color="#CFC8FF"/>
</linearGradient>
<linearGradient id="paint2_linear_665_8795" x1="10" y1="12.4687" x2="20.643" y2="40.6715" gradientUnits="userSpaceOnUse">
<stop stop-color="#FFA553"/>
<stop offset="1" stop-color="#FF4869"/>
</linearGradient>
</defs>
</svg>
