<svg width="48" height="48" viewBox="0 0 48 48" fill="none" xmlns="http://www.w3.org/2000/svg">
<g clip-path="url(#clip0_738_7919)">
<path d="M37.788 10.8923C45.122 17.1463 46.124 27.3683 40.092 34.6863C34.408 41.5803 24.162 43.8523 15.63 40.2963L15.164 40.0943L6.416 41.9563L6.35 41.9663L6.266 41.9823L6.204 41.9863L6.184 41.9923H6.148L6.044 42.0003L5.996 41.9983L5.956 42.0003L5.89 41.9943H5.82L5.776 41.9863L5.732 41.9823L5.662 41.9683L5.594 41.9583L5.562 41.9503L5.514 41.9403L5.416 41.9083L5.368 41.8983L5.346 41.8883L5.302 41.8743L5.212 41.8343L5.152 41.8103L5.13 41.7983L5.102 41.7863L5.04 41.7503L4.95 41.7023L4.918 41.6803L4.844 41.6283L4.764 41.5743L4.734 41.5483L4.648 41.4683L4.598 41.4283L4.474 41.2883L4.448 41.2623L4.426 41.2343L4.372 41.1543L4.32 41.0843C4.28056 41.023 4.24451 40.9596 4.212 40.8943L4.2 40.8683L4.162 40.7783L4.122 40.6943L4.114 40.6623L4.106 40.6423L4.084 40.5623L4.058 40.4823L4.054 40.4543L4.044 40.4163L4.034 40.3503L4.018 40.2663L4.014 40.2043L4.008 40.1523L4 40.0443L4.002 39.9723L4.004 39.9263L4.008 39.8203L4.016 39.7703V39.7323L4.032 39.6603L4.042 39.5943L4.05 39.5603L4.06 39.5143L4.096 39.3943L4.102 39.3683L6.402 32.4683L6.358 32.3943C1.938 24.9003 3.94 15.6103 11.18 10.1583L11.64 9.82234C19.436 4.29034 30.58 4.74234 37.788 10.8923ZM33.662 20.8923C33.5164 20.6736 33.3292 20.4858 33.1109 20.3394C32.8927 20.1931 32.6478 20.0912 32.3902 20.0396C32.1326 19.988 31.8673 19.9876 31.6096 20.0385C31.3518 20.0894 31.1066 20.1906 30.888 20.3363L26.252 23.4243L23.412 20.5843C23.0848 20.2576 22.6545 20.0543 22.1943 20.0091C21.7342 19.9639 21.2725 20.0795 20.888 20.3363L14.888 24.3363C14.6695 24.4821 14.4818 24.6695 14.3356 24.8877C14.1895 25.106 14.0878 25.351 14.0364 25.6086C13.9849 25.8662 13.9847 26.1314 14.0358 26.3891C14.0869 26.6467 14.1882 26.8918 14.334 27.1103L14.474 27.2963C14.7916 27.6699 15.2354 27.9138 15.721 27.9816C16.2066 28.0494 16.7002 27.9365 17.108 27.6643L21.742 24.5743L24.582 27.4143C24.9091 27.7419 25.3396 27.9458 25.8003 27.9914C26.2609 28.037 26.7231 27.9214 27.108 27.6643L33.108 23.6643C33.3265 23.5186 33.5142 23.3312 33.6604 23.1129C33.8065 22.8946 33.9082 22.6497 33.9596 22.3921C34.0111 22.1345 34.0113 21.8693 33.9602 21.6116C33.9091 21.3539 33.8078 21.1088 33.662 20.8903" fill="url(#paint0_linear_738_7919)"/>
</g>
<defs>
<linearGradient id="paint0_linear_738_7919" x1="24.0144" y1="1.90325" x2="28.9279" y2="50.5611" gradientUnits="userSpaceOnUse">
<stop stop-color="#31A5D7"/>
<stop offset="1" stop-color="#2B1BE8"/>
</linearGradient>
<clipPath id="clip0_738_7919">
<rect width="48" height="48" fill="white"/>
</clipPath>
</defs>
</svg>
