<svg width="48" height="48" viewBox="0 0 48 48" fill="none" xmlns="http://www.w3.org/2000/svg">
<g clip-path="url(#clip0_738_7923)">
<path d="M36 6C38.1217 6 40.1566 6.84285 41.6569 8.34315C43.1571 9.84344 44 11.8783 44 14V30C44 32.1217 43.1571 34.1566 41.6569 35.6569C40.1566 37.1571 38.1217 38 36 38H30.828L25.414 43.414C25.0696 43.7584 24.6114 43.9652 24.1254 43.9958C23.6393 44.0263 23.1588 43.8785 22.774 43.58L22.586 43.414L17.17 38H12C9.94752 38 7.97354 37.2111 6.48638 35.7966C4.99921 34.382 4.11262 32.4499 4.01 30.4L4 30V14C4 11.8783 4.84285 9.84344 6.34315 8.34315C7.84344 6.84285 9.87827 6 12 6H36ZM28 24H16C15.4696 24 14.9609 24.2107 14.5858 24.5858C14.2107 24.9609 14 25.4696 14 26C14 26.5304 14.2107 27.0391 14.5858 27.4142C14.9609 27.7893 15.4696 28 16 28H28C28.5304 28 29.0391 27.7893 29.4142 27.4142C29.7893 27.0391 30 26.5304 30 26C30 25.4696 29.7893 24.9609 29.4142 24.5858C29.0391 24.2107 28.5304 24 28 24ZM32 16H16C15.4696 16 14.9609 16.2107 14.5858 16.5858C14.2107 16.9609 14 17.4696 14 18C14 18.5304 14.2107 19.0391 14.5858 19.4142C14.9609 19.7893 15.4696 20 16 20H32C32.5304 20 33.0391 19.7893 33.4142 19.4142C33.7893 19.0391 34 18.5304 34 18C34 17.4696 33.7893 16.9609 33.4142 16.5858C33.0391 16.2107 32.5304 16 32 16Z" fill="url(#paint0_linear_738_7923)"/>
</g>
<defs>
<linearGradient id="paint0_linear_738_7923" x1="59.5556" y1="14.7692" x2="-1.78119" y2="30.5228" gradientUnits="userSpaceOnUse">
<stop stop-color="#FF9900"/>
<stop offset="1" stop-color="#FFD951"/>
</linearGradient>
<clipPath id="clip0_738_7923">
<rect width="48" height="48" fill="white"/>
</clipPath>
</defs>
</svg>
