<svg width="48" height="48" viewBox="0 0 48 48" fill="none" xmlns="http://www.w3.org/2000/svg">
<path d="M20 35.0004V22.0004C20 20.8958 20.8954 20.0004 22 20.0004H23L23.248 20.016C23.8207 20.0876 24.3395 20.4041 24.6641 20.891L30 28.8949V21.0004C30 19.8958 30.8954 19.0004 32 19.0004C33.1046 19.0004 34 19.8958 34 21.0004V34.0004C34 35.105 33.1046 36.0004 32 36.0004H31C30.3313 36.0004 29.7069 35.6662 29.3359 35.1098L24 27.1059V35.0004C24 36.105 23.1046 37.0004 22 37.0004C20.8954 37.0004 20 36.105 20 35.0004Z" fill="url(#paint0_linear_722_7352)"/>
<path d="M6 33.335V11.8525C6.00003 10.8452 6.38028 9.87502 7.06445 9.13574C7.74878 8.39655 8.68709 7.94197 9.69141 7.86426H9.69336L32.4707 6.1123L32.9727 6.09473C34.1387 6.10312 35.2815 6.45178 36.2578 7.10254L39.3281 9.14746H39.3262C40.1482 9.69521 40.8228 10.4387 41.2891 11.3096C41.7552 12.1802 41.9998 13.1521 42 14.1396V38.1494C41.9997 39.1566 41.6198 40.1271 40.9355 40.8662C40.2512 41.6053 39.3128 42.058 38.3086 42.1357H38.3066L15.248 43.9111H15.2461C14.5757 43.9623 13.9034 43.8429 13.291 43.5654C12.6787 43.2879 12.1457 42.8609 11.7422 42.3232L6.80078 35.7354C6.2816 35.0431 6.00012 34.2002 6 33.335ZM10 33.335L14.9414 39.9229L38 38.1475V14.1416L37.9844 13.8955C37.9542 13.6517 37.8803 13.4141 37.7637 13.1963C37.6084 12.9064 37.383 12.66 37.1094 12.4775L34.0391 10.4307C33.76 10.2447 33.4399 10.1324 33.1094 10.1025L32.7773 10.1006L10 11.8525V33.335Z" fill="url(#paint1_linear_722_7352)"/>
<path d="M7.58594 9.58634C8.36699 8.80529 9.63301 8.80529 10.4141 9.58634L15.4141 14.5863C16.1951 15.3674 16.1951 16.6334 15.4141 17.4145C14.633 18.1955 13.367 18.1955 12.5859 17.4145L7.58594 12.4145C6.80489 11.6334 6.80489 10.3674 7.58594 9.58634Z" fill="url(#paint2_linear_722_7352)"/>
<path d="M12 41.0004V16.0004L12.0098 15.807C12.1018 14.8503 12.8691 14.0818 13.8457 14.0063L39.8457 12.0063C40.9467 11.9216 41.909 12.7452 41.9941 13.8461C42.0788 14.9471 41.2552 15.9094 40.1543 15.9945L16 17.852V41.0004C16 42.105 15.1046 43.0004 14 43.0004C12.8954 43.0004 12 42.105 12 41.0004Z" fill="url(#paint3_linear_722_7352)"/>
<defs>
<linearGradient id="paint0_linear_722_7352" x1="6" y1="-2.01126" x2="25.6124" y2="46.6503" gradientUnits="userSpaceOnUse">
<stop stop-color="#3A9AE8"/>
<stop offset="1" stop-color="#0CAC77"/>
</linearGradient>
<linearGradient id="paint1_linear_722_7352" x1="6" y1="-2.01126" x2="25.6124" y2="46.6503" gradientUnits="userSpaceOnUse">
<stop stop-color="#3A9AE8"/>
<stop offset="1" stop-color="#0CAC77"/>
</linearGradient>
<linearGradient id="paint2_linear_722_7352" x1="6" y1="-2.01126" x2="25.6124" y2="46.6503" gradientUnits="userSpaceOnUse">
<stop stop-color="#3A9AE8"/>
<stop offset="1" stop-color="#0CAC77"/>
</linearGradient>
<linearGradient id="paint3_linear_722_7352" x1="6" y1="-2.01126" x2="25.6124" y2="46.6503" gradientUnits="userSpaceOnUse">
<stop stop-color="#3A9AE8"/>
<stop offset="1" stop-color="#0CAC77"/>
</linearGradient>
</defs>
</svg>
