<svg width="48" height="48" viewBox="0 0 48 48" fill="none" xmlns="http://www.w3.org/2000/svg">
<path d="M44 24C44 35.0457 35.0457 44 24 44C12.9543 44 4 35.0457 4 24C4 12.9543 12.9543 4 24 4C35.0457 4 44 12.9543 44 24Z" fill="url(#paint0_linear_131_9165)"/>
<path d="M21.2193 14.1412L18.4321 11.0753C17.7132 10.2845 17.9483 9.02587 18.9041 8.54793C19.9152 8.04238 20.106 6.68048 19.2727 5.91661L18.135 4.87373C19.9897 4.30567 21.9592 4 24 4C31.7607 4 38.4889 8.42022 41.8045 14.8804L33.4465 17.5398C32.5371 17.8291 31.5442 17.6685 30.7724 17.1072L27.5944 14.7959C26.8985 14.2898 26.0189 14.1069 25.1791 14.2935L23.133 14.7482C22.4324 14.9039 21.7021 14.6723 21.2193 14.1412Z" fill="url(#paint1_linear_131_9165)"/>
<path d="M15.4321 15.916L21.057 15.1446C21.7389 15.051 22.4323 15.1949 23.0208 15.5519L30.5511 20.1209C31.3871 20.6281 31.7338 21.6656 31.3706 22.5735L30.0847 25.7884C30.0283 25.9293 29.9827 26.0742 29.9483 26.222L28.3342 33.1517C28.1036 34.1415 27.505 35.0064 26.6599 35.5708L24.3112 37.1392C23.0522 37.9799 21.3518 37.1713 21.2094 35.6642L20.7013 30.2891C20.5557 28.7485 19.2621 27.5714 17.7146 27.5714H15.5743C14.4682 27.5714 13.4518 26.9628 12.9297 25.9877L11.6933 23.6791C11.2559 22.8624 11.2204 21.8894 11.5971 21.043L13.0989 17.6684C13.521 16.7199 14.4035 16.057 15.4321 15.916Z" fill="url(#paint2_linear_131_9165)"/>
<defs>
<linearGradient id="paint0_linear_131_9165" x1="13.3333" y1="47.75" x2="41.0467" y2="-6.87338" gradientUnits="userSpaceOnUse">
<stop stop-color="#ADFF99"/>
<stop offset="1" stop-color="#31E4AF"/>
</linearGradient>
<linearGradient id="paint1_linear_131_9165" x1="5.92603" y1="32.3729" x2="53.1273" y2="9.79731" gradientUnits="userSpaceOnUse">
<stop stop-color="#57B74E"/>
<stop offset="1" stop-color="#0D8C66"/>
</linearGradient>
<linearGradient id="paint2_linear_131_9165" x1="5.92603" y1="32.3729" x2="53.1273" y2="9.79731" gradientUnits="userSpaceOnUse">
<stop stop-color="#57B74E"/>
<stop offset="1" stop-color="#0D8C66"/>
</linearGradient>
</defs>
</svg>
