<svg width="48" height="48" viewBox="0 0 48 48" fill="none" xmlns="http://www.w3.org/2000/svg">
<g clip-path="url(#clip0_42_4120)">
<path d="M7 41.5L41.5 41.5M15 33.5L41.5 33.5" stroke="url(#paint0_linear_42_4120)" stroke-width="5" stroke-linecap="round"/>
<g clip-path="url(#clip1_42_4120)">
<path fill-rule="evenodd" clip-rule="evenodd" d="M30.4187 6.3134C33.5262 3.20582 38.5668 3.2195 41.668 6.32074C44.7692 9.42196 44.7829 14.4625 41.6753 17.5701L17.5717 41.6737C17.2899 41.9556 16.9298 42.1461 16.5383 42.2207L7.54034 43.9346C5.47373 44.3283 3.66059 42.5151 4.05423 40.4485L5.76813 31.4504C5.84271 31.0589 6.03328 30.6989 6.31511 30.417L30.4187 6.3134Z" fill="url(#paint1_linear_42_4120)"/>
<path fill-rule="evenodd" clip-rule="evenodd" d="M17.158 41.9907C16.9668 42.1008 16.7575 42.1789 16.5384 42.2206L7.54037 43.9346C5.47376 44.3282 3.66062 42.515 4.05426 40.4484L5.76816 31.4504C5.83874 31.0798 6.01324 30.7374 6.27066 30.4629L17.158 41.9907Z" fill="url(#paint2_linear_42_4120)"/>
<path d="M6.31516 30.417C6.03334 30.6988 5.84276 31.0589 5.76819 31.4504L16.5384 42.2207C16.9299 42.1461 17.29 41.9555 17.5718 41.6737L19.3393 39.9061L8.08274 28.6494L6.31516 30.417Z" fill="url(#paint3_linear_42_4120)"/>
</g>
</g>
<defs>
<linearGradient id="paint0_linear_42_4120" x1="13.6828" y1="-6.81529e+06" x2="46.9391" y2="-6.81529e+06" gradientUnits="userSpaceOnUse">
<stop stop-color="#FFA553"/>
<stop offset="1" stop-color="#FF4869"/>
</linearGradient>
<linearGradient id="paint1_linear_42_4120" x1="6.04454" y1="53.4824" x2="-8.07468" y2="33.3471" gradientUnits="userSpaceOnUse">
<stop stop-color="#FFB21E"/>
<stop offset="1" stop-color="#FFE665"/>
</linearGradient>
<linearGradient id="paint2_linear_42_4120" x1="5.97381" y1="28.5608" x2="17.9469" y2="42.4499" gradientUnits="userSpaceOnUse">
<stop stop-color="#FFA553"/>
<stop offset="1" stop-color="#FF4869"/>
</linearGradient>
<linearGradient id="paint3_linear_42_4120" x1="12.5538" y1="27.2923" x2="12.5538" y2="42.2207" gradientUnits="userSpaceOnUse">
<stop stop-color="#FFFBDB"/>
<stop offset="1" stop-color="#FFDBA5"/>
</linearGradient>
<clipPath id="clip0_42_4120">
<rect width="48" height="48" fill="white"/>
</clipPath>
<clipPath id="clip1_42_4120">
<rect width="48" height="48" fill="white"/>
</clipPath>
</defs>
</svg>
