<svg width="48" height="48" viewBox="0 0 48 48" fill="none" xmlns="http://www.w3.org/2000/svg">
<path d="M4 12C4 7.58172 7.58172 4 12 4H36C40.4183 4 44 7.58172 44 12V36C44 40.4183 40.4183 44 36 44H12C7.58172 44 4 40.4183 4 36V12Z" fill="url(#paint0_linear_54_5669)"/>
<path d="M24.75 17.678V7.25C29.625 7.2499 36.75 15.428 36.75 17.678H24.75Z" fill="url(#paint1_linear_54_5669)"/>
<path fill-rule="evenodd" clip-rule="evenodd" d="M11.25 13.25C11.25 9.93629 13.9363 7.25 17.25 7.25H24.8504C27.2353 7.25 27.9176 10.4218 28.313 13.0227C28.4248 13.758 29.0511 14.2982 29.7943 14.3257C32.9614 14.4432 36.75 15.097 36.75 18V32.75C36.75 36.0637 34.0637 38.75 30.75 38.75H17.25C13.9363 38.75 11.25 36.0637 11.25 32.75V13.25Z" fill="url(#paint2_linear_54_5669)"/>
<path d="M19.2 20.9375H25.2M19.2 28.0625H28.8" stroke="url(#paint3_linear_54_5669)" stroke-width="5" stroke-linecap="round" stroke-linejoin="round"/>
<path d="M5 10.5957C5 7.28199 7.68629 4.5957 11 4.5957M43 10.5957C43 7.28199 40.3137 4.5957 37 4.5957M5 36.5957C5 39.9094 7.68629 42.5957 11 42.5957M43 36.5957C43 39.9094 40.3137 42.5957 37 42.5957" stroke="url(#paint4_linear_54_5669)" stroke-width="4" stroke-linecap="round" stroke-linejoin="round"/>
<path d="M42 27L6 27" stroke="url(#paint5_linear_54_5669)" stroke-width="5" stroke-linecap="round"/>
<defs>
<linearGradient id="paint0_linear_54_5669" x1="24.7278" y1="4.48152" x2="24.7278" y2="43.9963" gradientUnits="userSpaceOnUse">
<stop stop-color="#ACDCFF"/>
<stop offset="1" stop-color="#F9FDFF"/>
</linearGradient>
<linearGradient id="paint1_linear_54_5669" x1="36.75" y1="20.1221" x2="26.5851" y2="7.23592" gradientUnits="userSpaceOnUse">
<stop stop-color="#819CFF"/>
<stop offset="1" stop-color="#CFC8FF"/>
</linearGradient>
<linearGradient id="paint2_linear_54_5669" x1="36.75" y1="46.1328" x2="5.38263" y2="18.1593" gradientUnits="userSpaceOnUse">
<stop stop-color="#3662FD"/>
<stop offset="1" stop-color="#8673FF"/>
</linearGradient>
<linearGradient id="paint3_linear_54_5669" x1="28.8" y1="29.7324" x2="22.1813" y2="19.9083" gradientUnits="userSpaceOnUse">
<stop stop-color="#D5E0FF"/>
<stop offset="1" stop-color="#F0E1FF"/>
</linearGradient>
<linearGradient id="paint4_linear_54_5669" x1="43" y1="51.502" x2="5.0894" y2="9.73814" gradientUnits="userSpaceOnUse">
<stop stop-color="#3662FD"/>
<stop offset="1" stop-color="#8673FF"/>
</linearGradient>
<linearGradient id="paint5_linear_54_5669" x1="47.0625" y1="27.15" x2="2.625" y2="27.8125" gradientUnits="userSpaceOnUse">
<stop stop-color="#FFA553"/>
<stop offset="1" stop-color="#FF4869"/>
</linearGradient>
</defs>
</svg>
