<svg width="48" height="48" viewBox="0 0 48 48" fill="none" xmlns="http://www.w3.org/2000/svg">
<path fill-rule="evenodd" clip-rule="evenodd" d="M12.2609 5.31107C13.6907 4.45317 15.3268 4 16.9943 4H31.0057C32.6732 4 34.3093 4.45317 35.7391 5.31106L39.5334 7.58764C42.3044 9.25029 44 12.245 44 15.4766V34.8C44 39.881 39.881 44 34.8 44H13.2C8.11898 44 4 39.881 4 34.8V15.4766C4 12.245 5.69555 9.25029 8.46664 7.58764L12.2609 5.31107Z" fill="url(#paint0_linear_22_3044)"/>
<path fill-rule="evenodd" clip-rule="evenodd" d="M4.11902 14H24V4H16.9942C15.3268 4 13.6907 4.45317 12.2609 5.31107L8.46657 7.58764C6.12353 8.99346 4.54942 11.3516 4.11902 14Z" fill="url(#paint1_linear_22_3044)"/>
<path fill-rule="evenodd" clip-rule="evenodd" d="M43.8809 14H24V4H31.0057C32.6731 4 34.3092 4.45317 35.739 5.31106L39.5333 7.58764C41.8763 8.99346 43.4505 11.3516 43.8809 14Z" fill="url(#paint2_linear_22_3044)"/>
<defs>
<linearGradient id="paint0_linear_22_3044" x1="24" y1="1.71766e-07" x2="24" y2="44" gradientUnits="userSpaceOnUse">
<stop stop-color="#FFF599"/>
<stop offset="1" stop-color="#FCD650"/>
</linearGradient>
<linearGradient id="paint1_linear_22_3044" x1="-0.37561" y1="6" x2="13.0502" y2="23.5294" gradientUnits="userSpaceOnUse">
<stop stop-color="#FFF495"/>
<stop offset="1" stop-color="#FF9901"/>
</linearGradient>
<linearGradient id="paint2_linear_22_3044" x1="22.5077" y1="-2.5" x2="32.5405" y2="18.9609" gradientUnits="userSpaceOnUse">
<stop stop-color="#FFF495"/>
<stop offset="1" stop-color="#FF9901"/>
</linearGradient>
</defs>
</svg>
