<svg width="48" height="48" viewBox="0 0 48 48" fill="none" xmlns="http://www.w3.org/2000/svg">
<g clip-path="url(#clip0_32_3466)">
<path d="M4 12C4 7.58173 7.58172 4 12 4H36C40.4183 4 44 7.58172 44 12V28.196C44 32.6143 40.4183 36.196 36 36.196H27.0202C26.7667 36.196 26.5225 36.2924 26.3373 36.4655L19.0488 43.2797C17.1318 45.072 14 43.7127 14 41.0883V37.196C14 36.6437 13.5523 36.196 13 36.196H12C7.58172 36.196 4 32.6143 4 28.196V12Z" fill="url(#paint0_linear_32_3466)"/>
<path fill-rule="evenodd" clip-rule="evenodd" d="M24 16C25.3807 16 26.5 14.8807 26.5 13.5C26.5 12.1193 25.3807 11 24 11C22.6193 11 21.5 12.1193 21.5 13.5C21.5 14.8807 22.6193 16 24 16ZM26.5 20C26.5 18.6193 25.3807 17.5 24 17.5C22.6193 17.5 21.5 18.6193 21.5 20V26C21.5 27.3807 22.6193 28.5 24 28.5C25.3807 28.5 26.5 27.3807 26.5 26V20Z" fill="url(#paint1_linear_32_3466)"/>
</g>
<defs>
<linearGradient id="paint0_linear_32_3466" x1="39" y1="-8.52946" x2="35.2107" y2="48.5967" gradientUnits="userSpaceOnUse">
<stop stop-color="#FF5018"/>
<stop offset="1" stop-color="#FF9E0D"/>
</linearGradient>
<linearGradient id="paint1_linear_32_3466" x1="24" y1="9.25" x2="24" y2="28.5" gradientUnits="userSpaceOnUse">
<stop stop-color="#FFFBDB"/>
<stop offset="1" stop-color="#FFDBA5"/>
</linearGradient>
<clipPath id="clip0_32_3466">
<rect width="48" height="48" fill="white"/>
</clipPath>
</defs>
</svg>
