<svg width="48" height="48" viewBox="0 0 48 48" fill="none" xmlns="http://www.w3.org/2000/svg">
<path d="M44 24C44 35.0457 35.0457 44 24 44C12.9543 44 4 35.0457 4 24C4 12.9543 12.9543 4 24 4C35.0457 4 44 12.9543 44 24Z" fill="url(#paint0_radial_97_10759)"/>
<path d="M17 27C17 27 19.1875 30 24 30C28.8125 30 31 27 31 27" stroke="url(#paint1_linear_97_10759)" stroke-width="4" stroke-linecap="round"/>
<path d="M20 19C20 20.6569 18.6569 22 17 22C15.3431 22 14 20.6569 14 19C14 17.3431 15.3431 16 17 16C18.6569 16 20 17.3431 20 19Z" fill="url(#paint2_linear_97_10759)"/>
<path d="M34 19C34 20.6569 32.6569 22 31 22C29.3431 22 28 20.6569 28 19C28 17.3431 29.3431 16 31 16C32.6569 16 34 17.3431 34 19Z" fill="url(#paint3_linear_97_10759)"/>
<defs>
<radialGradient id="paint0_radial_97_10759" cx="0" cy="0" r="1" gradientUnits="userSpaceOnUse" gradientTransform="translate(24 44) rotate(-90) scale(44 47.0144)">
<stop stop-color="#FFE976"/>
<stop offset="0.965094" stop-color="#FFC328"/>
</radialGradient>
<linearGradient id="paint1_linear_97_10759" x1="24" y1="36" x2="24" y2="22.5" gradientUnits="userSpaceOnUse">
<stop stop-color="#914C1A"/>
<stop offset="1" stop-color="#D98200"/>
</linearGradient>
<linearGradient id="paint2_linear_97_10759" x1="26.5" y1="25" x2="26.0978" y2="12.5986" gradientUnits="userSpaceOnUse">
<stop stop-color="#914C1A"/>
<stop offset="1" stop-color="#D98200"/>
</linearGradient>
<linearGradient id="paint3_linear_97_10759" x1="26.5" y1="25" x2="26.0978" y2="12.5986" gradientUnits="userSpaceOnUse">
<stop stop-color="#914C1A"/>
<stop offset="1" stop-color="#D98200"/>
</linearGradient>
</defs>
</svg>
