<svg width="48" height="48" viewBox="0 0 48 48" fill="none" xmlns="http://www.w3.org/2000/svg">
<path d="M4 32C4 28.6863 6.68629 26 10 26H38C41.3137 26 44 28.6863 44 32V36C44 39.3137 41.3137 42 38 42H10C6.68629 42 4 39.3137 4 36V32Z" fill="url(#paint0_linear_21_10267)"/>
<path d="M4 12C4 8.68629 6.68629 6 10 6H38C41.3137 6 44 8.68629 44 12V16C44 19.3137 41.3137 22 38 22H10C6.68629 22 4 19.3137 4 16V12Z" fill="url(#paint1_linear_21_10267)"/>
<path d="M15 14C15 15.6569 13.6569 17 12 17C10.3431 17 9 15.6569 9 14C9 12.3431 10.3431 11 12 11C13.6569 11 15 12.3431 15 14Z" fill="url(#paint2_linear_21_10267)"/>
<path d="M25 14C25 15.6569 23.6569 17 22 17C20.3431 17 19 15.6569 19 14C19 12.3431 20.3431 11 22 11C23.6569 11 25 12.3431 25 14Z" fill="url(#paint3_linear_21_10267)"/>
<path d="M15 34C15 35.6569 13.6569 37 12 37C10.3431 37 9 35.6569 9 34C9 32.3431 10.3431 31 12 31C13.6569 31 15 32.3431 15 34Z" fill="url(#paint4_linear_21_10267)"/>
<path d="M25 34C25 35.6569 23.6569 37 22 37C20.3431 37 19 35.6569 19 34C19 32.3431 20.3431 31 22 31C23.6569 31 25 32.3431 25 34Z" fill="url(#paint5_linear_21_10267)"/>
<defs>
<linearGradient id="paint0_linear_21_10267" x1="40.3636" y1="51" x2="19.0598" y2="-1.41431" gradientUnits="userSpaceOnUse">
<stop stop-color="#2BBFFF"/>
<stop offset="1" stop-color="#0167FF"/>
</linearGradient>
<linearGradient id="paint1_linear_21_10267" x1="40.3636" y1="51" x2="19.0598" y2="-1.41431" gradientUnits="userSpaceOnUse">
<stop stop-color="#2BBFFF"/>
<stop offset="1" stop-color="#0167FF"/>
</linearGradient>
<linearGradient id="paint2_linear_21_10267" x1="12.7333" y1="39.4375" x2="34.646" y2="12.8589" gradientUnits="userSpaceOnUse">
<stop stop-color="#EFFFEB"/>
<stop offset="1" stop-color="#B4FFE8"/>
</linearGradient>
<linearGradient id="paint3_linear_21_10267" x1="12.7333" y1="39.4375" x2="34.646" y2="12.8589" gradientUnits="userSpaceOnUse">
<stop stop-color="#EFFFEB"/>
<stop offset="1" stop-color="#B4FFE8"/>
</linearGradient>
<linearGradient id="paint4_linear_21_10267" x1="12.7333" y1="39.4375" x2="34.646" y2="12.8589" gradientUnits="userSpaceOnUse">
<stop stop-color="#EFFFEB"/>
<stop offset="1" stop-color="#B4FFE8"/>
</linearGradient>
<linearGradient id="paint5_linear_21_10267" x1="12.7333" y1="39.4375" x2="34.646" y2="12.8589" gradientUnits="userSpaceOnUse">
<stop stop-color="#EFFFEB"/>
<stop offset="1" stop-color="#B4FFE8"/>
</linearGradient>
</defs>
</svg>
