<svg width="48" height="48" viewBox="0 0 48 48" fill="none" xmlns="http://www.w3.org/2000/svg">
<path fill-rule="evenodd" clip-rule="evenodd" d="M15.6075 6.39923C16.3779 3.86594 18.9965 2.14484 21.8017 3.18955C23.8888 3.96683 26.5554 5.6073 28.6779 8.99196C29.5898 10.4462 30.1764 12.007 30.5466 13.5244C30.6301 13.8666 30.7501 14.2016 30.9039 14.5255C32.2552 14.167 33.6818 14.469 34.8022 15.0739C36.0243 15.7336 37.1567 16.8986 37.5808 18.5041C37.9794 20.0134 38.5255 21.5575 39.2679 23.0362C39.6111 23.72 39.8829 24.3887 40.089 25.0418C40.9695 27.6265 41.0124 30.6004 40.0691 33.4884C38.4538 38.4339 34.3364 41.6965 29.663 41.9796C27.3751 43.5041 24.9308 43.9647 22.669 43.9984C14.0543 44.1267 6.94925 37.2795 6.8199 28.6833C6.77465 25.6763 7.59163 22.8508 9.04333 20.4471C9.6913 19.1645 10.5639 17.9879 11.341 16.9401C11.3577 16.9177 11.3742 16.8953 11.3907 16.8731C12.8634 14.887 14.0901 13.1853 14.51 10.9888C14.8883 9.00977 15.2681 7.51495 15.6075 6.39923Z" fill="url(#paint0_linear_131_8771)"/>
<path fill-rule="evenodd" clip-rule="evenodd" d="M27.2017 21.3572C28.8846 23.0922 30.5 26.0245 30.5 28.845C30.5 32.4768 27.6326 35.4997 24 35.4997C20.3674 35.4997 17.5 32.4768 17.5 28.845C17.5 26.8414 18.4561 25.7069 19.2398 24.7995C19.262 24.7737 19.2841 24.7481 19.3062 24.7226C20.0227 23.8939 20.664 23.1522 21.0545 21.7432C21.2364 21.0869 21.5757 20.4404 22.177 19.9976C22.803 19.5366 23.5192 19.4384 24.1561 19.5322C25.311 19.7023 26.3829 20.513 27.2017 21.3572Z" fill="url(#paint1_linear_131_8771)"/>
<defs>
<linearGradient id="paint0_linear_131_8771" x1="36.5199" y1="-9.97148" x2="31.8325" y2="48.4999" gradientUnits="userSpaceOnUse">
<stop stop-color="#FF5018"/>
<stop offset="1" stop-color="#FF9E0D"/>
</linearGradient>
<linearGradient id="paint1_linear_131_8771" x1="24" y1="17.9" x2="24" y2="35.4997" gradientUnits="userSpaceOnUse">
<stop stop-color="#FFFBDB"/>
<stop offset="1" stop-color="#FFDBA5"/>
</linearGradient>
</defs>
</svg>
