<svg width="48" height="48" viewBox="0 0 48 48" fill="none" xmlns="http://www.w3.org/2000/svg">
<path d="M4 12C4 7.58172 7.58172 4 12 4H36C40.4183 4 44 7.58172 44 12V36C44 40.4183 40.4183 44 36 44H12C7.58172 44 4 40.4183 4 36V12Z" fill="url(#paint0_linear_1_11402)"/>
<path d="M31.2765 28.8693L22.4791 22.418C20.1671 20.7225 16.9786 20.8996 14.8686 22.8408L4 33.0597V35.9999C4 40.4182 7.58172 43.9999 12 43.9999H36C40.4183 43.9999 44 40.4182 44 35.9999V23.5116L35.815 29.002C34.4212 29.9039 32.6152 29.8511 31.2765 28.8693Z" fill="url(#paint1_linear_1_11402)"/>
<path fill-rule="evenodd" clip-rule="evenodd" d="M28 15C28 12.2386 30.2386 10 33 10C35.7614 10 38 12.2386 38 15C38 17.7614 35.7614 20 33 20C30.2386 20 28 17.7614 28 15Z" fill="url(#paint2_linear_1_11402)"/>
<defs>
<linearGradient id="paint0_linear_1_11402" x1="44" y1="53.375" x2="4.0941" y2="9.41309" gradientUnits="userSpaceOnUse">
<stop stop-color="#3662FD"/>
<stop offset="1" stop-color="#8673FF"/>
</linearGradient>
<linearGradient id="paint1_linear_1_11402" x1="44" y1="49.3304" x2="25.4182" y2="13.3282" gradientUnits="userSpaceOnUse">
<stop stop-color="#819CFF"/>
<stop offset="1" stop-color="#CFC8FF"/>
</linearGradient>
<linearGradient id="paint2_linear_1_11402" x1="38" y1="22.3437" x2="28.0235" y2="11.3533" gradientUnits="userSpaceOnUse">
<stop stop-color="#D5E0FF"/>
<stop offset="1" stop-color="#F0E1FF"/>
</linearGradient>
</defs>
</svg>
