<svg width="48" height="48" viewBox="0 0 48 48" fill="none" xmlns="http://www.w3.org/2000/svg">
<g clip-path="url(#clip0_754_7214)">
<path d="M17.1243 5.62109C17.9925 4.74437 19.6652 3.29332 21.7961 3.88867C22.2976 4.02887 22.7183 4.35858 22.9788 4.7998H24.0012C27.3337 4.7998 30.5261 4.77282 34.05 6.72559L34.6409 7.07227C34.7694 7.13518 34.8911 7.21376 35.0051 7.30469C38.1678 9.39005 40.6766 12.3305 42.2336 15.7881C43.8272 19.3273 44.3566 23.254 43.7571 27.0889C43.1573 30.9241 41.455 34.5037 38.8567 37.3877C36.2583 40.2716 32.8745 42.3361 29.1223 43.3311C25.3702 44.3258 21.4097 44.2068 17.7239 42.9893C14.0379 41.7716 10.7858 39.5079 8.3645 36.4736C5.94331 33.4393 4.45638 29.7657 4.08716 25.9014C3.73984 22.2648 4.39565 18.6069 5.97681 15.3232C5.82034 14.1752 5.83759 13.0297 5.94653 12.0039C6.09717 10.5863 6.43712 9.21529 6.88208 8.0625C7.29977 6.98067 7.90568 5.83653 8.73755 5.11719C9.30343 4.62824 10.0961 4.49526 10.7903 4.77344C11.4845 5.05175 11.9649 5.69498 12.0364 6.43945C12.084 6.93458 12.2201 7.17168 12.384 7.375C12.4801 7.49404 12.6072 7.62085 12.7883 7.78711C13.3249 7.66414 13.8507 7.58362 14.3743 7.58203C14.7168 7.58104 15.0407 7.61172 15.3508 7.66992C15.4634 7.5319 15.5822 7.38973 15.7043 7.24023C16.1284 6.72122 16.6127 6.1378 17.1243 5.62109ZM18.4602 10.1855C18.1486 10.5678 17.8163 10.975 17.4875 11.3398C16.882 12.0111 15.9008 12.1931 15.095 11.7832C14.7659 11.6157 14.584 11.5815 14.386 11.582C14.1168 11.5829 13.6903 11.6502 12.8645 11.9082C12.1881 12.1195 11.4502 11.9582 10.925 11.4824C10.7231 11.2993 10.4695 11.0918 10.1965 10.8477C10.0757 11.3473 9.98109 11.8817 9.9231 12.4277C9.68025 14.7157 10.1374 16.5636 11.1614 17.4785C11.9847 18.2144 12.0552 19.4792 11.3196 20.3027C10.5836 21.1263 9.319 21.1968 8.49536 20.4609C8.46681 20.4354 8.43936 20.4087 8.41138 20.3828C8.02269 22.0571 7.90453 23.7918 8.06958 25.5205C8.36496 28.612 9.55446 31.552 11.4915 33.9795C13.4283 36.4066 16.0294 38.2183 18.9778 39.1924C21.9266 40.1665 25.097 40.2618 28.0989 39.4658C31.1002 38.6698 33.8055 37.0168 35.884 34.71C37.9626 32.4028 39.3261 29.5398 39.8059 26.4717C40.2856 23.4039 39.8619 20.262 38.5872 17.4307C38.4906 17.2162 38.3871 17.0053 38.2815 16.7959C38.2813 17.3639 38.274 17.8879 38.2786 18.3477V18.3672C38.2786 23.0392 36.1444 27.66 31.7434 31.0645C31.7258 31.0781 31.7068 31.0924 31.6887 31.1055C28.8774 33.1308 24.5207 34.1647 18.8958 32.0312C17.9383 31.6681 17.4096 30.6404 17.6711 29.6504C17.9331 28.661 18.8999 28.0285 19.9114 28.1855C20.6931 28.3069 21.0877 28.1506 21.3508 27.9805C21.696 27.757 22.0324 27.3673 22.4856 26.6875C22.6526 26.437 22.8626 26.0985 23.1028 25.7363C22.394 25.8584 21.4037 26.0539 20.6829 26.1426C19.9397 26.2339 18.778 26.3296 17.7434 25.8652L17.5403 25.7656C16.5306 25.2284 15.2952 24.162 14.9993 22.541C14.6651 20.709 15.6662 19.1003 17.3079 17.9121L17.4446 17.8223C18.6938 17.0655 19.8629 16.2854 20.7415 15.5039C20.9595 15.3099 21.1419 15.1282 21.2961 14.9629C19.8391 13.8341 18.7898 12.1124 18.4602 10.1855ZM22.3567 8.7998C22.3071 10.4471 23.3787 11.8796 24.5852 12.248C25.5496 12.5432 26.1431 13.5103 25.97 14.5039C25.679 16.172 24.4997 17.5136 23.3997 18.4922C22.2737 19.4938 20.8967 20.399 19.6243 21.1738C19.17 21.5075 19.005 21.7455 18.9543 21.8418H18.9524C18.9645 21.8611 18.9812 21.8899 19.011 21.9238C19.0928 22.0171 19.2202 22.1193 19.3782 22.209C19.4145 22.2095 19.6359 22.2405 20.1946 22.1719C20.9744 22.076 21.6278 21.9168 22.72 21.7422C23.6542 21.5929 24.8076 21.4573 25.9153 21.6172C27.0855 21.7863 28.3462 22.3115 29.2161 23.5723C29.6258 24.1662 29.6843 24.9353 29.3684 25.584C29.0523 26.2326 28.4109 26.6616 27.6907 26.7051C27.5301 26.7147 27.3668 26.7601 27.0657 27.0938C26.6731 27.5289 26.3971 28.0311 25.8137 28.9062C25.7551 28.9942 25.6889 29.0824 25.6243 29.1758C27.2355 29.0407 28.4566 28.495 29.3235 27.877C32.5469 25.3718 34.0816 22.1771 34.261 19.0039L34.2786 18.3672C34.2637 16.7894 34.3531 15.7459 34.1282 14.4531C33.9343 13.3391 33.4882 12.0407 32.3684 10.375C29.7506 8.83356 27.4729 8.79981 24.0012 8.7998H22.3567Z" fill="url(#paint0_linear_754_7214)"/>
</g>
<defs>
<linearGradient id="paint0_linear_754_7214" x1="7.86409" y1="48.113" x2="34.7239" y2="5.64162" gradientUnits="userSpaceOnUse">
<stop stop-color="#FF1725"/>
<stop offset="0.580956" stop-color="#FF7E2F"/>
<stop offset="1" stop-color="#F4A7F7"/>
</linearGradient>
<clipPath id="clip0_754_7214">
<rect width="48" height="48" fill="white"/>
</clipPath>
</defs>
</svg>
