<svg width="48" height="48" viewBox="0 0 48 48" fill="none" xmlns="http://www.w3.org/2000/svg">
<path fill-rule="evenodd" clip-rule="evenodd" d="M14.3403 3.04098C16.0559 2.84141 17.7683 3.43901 18.9896 4.66343L19.1607 4.83499C20.6514 6.32964 21.2753 8.48538 20.814 10.5479L20.6557 11.2559C20.5593 11.6868 20.6896 12.1372 21.0011 12.4494L35.4622 26.9483C35.7737 27.2606 36.2229 27.3913 36.6527 27.2946L37.2546 27.1593C39.3766 26.6822 41.5945 27.3274 43.1323 28.8692L43.332 29.0694C44.4566 30.197 45.0605 31.7442 44.9978 33.3376C44.897 35.9002 43.1065 38.082 40.6178 38.6747L39.4072 38.9631C39.0826 39.0404 38.823 39.284 38.7245 39.6036L38.2943 41.0002C37.6331 43.1468 35.7698 44.6992 33.5441 44.9581C31.8285 45.1577 30.116 44.5601 28.8948 43.3356L28.7237 43.1641C27.2329 41.6694 26.6091 39.5137 27.0704 37.4512L27.2287 36.7432C27.3251 36.3123 27.1947 35.8619 26.8833 35.5496L12.4222 21.0508C12.1107 20.7385 11.6615 20.6078 11.2317 20.7044L10.5256 20.8632C8.46844 21.3257 6.31832 20.7002 4.82756 19.2055L4.65645 19.034C3.43522 17.8096 2.83918 16.0926 3.03822 14.3726C3.29646 12.141 4.84484 10.2729 6.98575 9.60994L8.3577 9.1851C8.74429 9.06539 9.04694 8.76195 9.16635 8.37435L9.59008 6.99882C10.2513 4.85231 12.1145 3.29989 14.3403 3.04098Z" fill="url(#paint0_linear_681_8061)"/>
<defs>
<linearGradient id="paint0_linear_681_8061" x1="61.3362" y1="12.6936" x2="-3.45947" y2="28.5067" gradientUnits="userSpaceOnUse">
<stop stop-color="#FF9900"/>
<stop offset="1" stop-color="#FFD951"/>
</linearGradient>
</defs>
</svg>
