<svg width="48" height="48" viewBox="0 0 48 48" fill="none" xmlns="http://www.w3.org/2000/svg">
<path fill-rule="evenodd" clip-rule="evenodd" d="M17.4755 8.88668C17.2133 6.2703 19.2721 4 21.9068 4H26.0932C28.7279 4 30.7866 6.2703 30.5245 8.88668C30.3438 10.6894 32.3787 11.8619 33.8527 10.8044C35.9921 9.26962 38.9915 9.91381 40.3089 12.191L42.4021 15.8091C43.7194 18.0863 42.7787 21.0008 40.3772 22.0824C38.7225 22.8276 38.7226 25.1725 40.3772 25.9177C42.7787 26.9993 43.7195 29.9138 42.4021 32.191L40.3089 35.8091C38.9916 38.0863 35.9921 38.7304 33.8527 37.1957C32.3787 36.1382 30.3438 37.3106 30.5245 39.1133C30.7866 41.7297 28.7279 44 26.0932 44H21.9068C19.2721 44 17.2133 41.7297 17.4755 39.1133C17.6561 37.3106 15.6213 36.1382 14.1473 37.1957C12.0079 38.7305 9.00845 38.0863 7.69107 35.8091L5.59791 32.191C4.28054 29.9138 5.22128 26.9993 7.62279 25.9177C9.27743 25.1725 9.27745 22.8276 7.62281 22.0824C5.2213 21.0007 4.28056 18.0863 5.59794 15.8091L7.6911 12.191C9.00847 9.9138 12.008 9.26962 14.1473 10.8044C15.6213 11.8619 17.6561 10.6894 17.4755 8.88668Z" fill="url(#paint0_linear_24_1462)"/>
<circle cx="24" cy="24" r="7" stroke="url(#paint1_linear_24_1462)" stroke-width="4"/>
<defs>
<linearGradient id="paint0_linear_24_1462" x1="43" y1="53.375" x2="2.94847" y2="11.4588" gradientUnits="userSpaceOnUse">
<stop stop-color="#819CFF"/>
<stop offset="1" stop-color="#CFC8FF"/>
</linearGradient>
<linearGradient id="paint1_linear_24_1462" x1="31" y1="34.2812" x2="17.0329" y2="18.8946" gradientUnits="userSpaceOnUse">
<stop stop-color="#3662FD"/>
<stop offset="1" stop-color="#8673FF"/>
</linearGradient>
</defs>
</svg>
