<svg width="48" height="48" viewBox="0 0 48 48" fill="none" xmlns="http://www.w3.org/2000/svg">
<path d="M27.7301 18.4524C27.1515 19.7061 27.6988 21.1914 28.9524 21.7699C30.2061 22.3485 31.6914 21.8012 32.2699 20.5476L27.7301 18.4524ZM35.9996 6.5L38.2695 5.4523C37.8609 4.56694 36.9747 3.99998 35.9996 4C35.0244 4.00002 34.1383 4.56702 33.7297 5.45241L35.9996 6.5ZM39.7301 20.5477C40.3088 21.8013 41.7941 22.3485 43.0477 21.7699C44.3013 21.1912 44.8485 19.7059 44.2699 18.4523L39.7301 20.5477ZM40.6153 16.5L42.8852 15.4523L40.6153 16.5ZM32.2699 20.5476L33.6545 17.5476L29.1146 15.4524L27.7301 18.4524L32.2699 20.5476ZM33.6545 17.5476L38.2696 7.54759L33.7297 5.45241L29.1146 15.4524L33.6545 17.5476ZM33.7298 7.5477L38.3454 17.5477L42.8852 15.4523L38.2695 5.4523L33.7298 7.5477ZM38.3454 17.5477L39.7301 20.5477L44.2699 18.4523L42.8852 15.4523L38.3454 17.5477ZM31.3845 19H40.6153V14H31.3845V19Z" fill="url(#paint0_linear_251_5256)"/>
<path d="M42 41.5H30L42 28.5H30" stroke="url(#paint1_linear_251_5256)" stroke-width="5" stroke-linecap="round" stroke-linejoin="round"/>
<path fill-rule="evenodd" clip-rule="evenodd" d="M14.5 4C8.70101 4 4 8.70101 4 14.5V33.5C4 39.299 8.70101 44 14.5 44C20.299 44 25 39.299 25 33.5V14.5C25 8.70101 20.299 4 14.5 4ZM16.5 11C16.5 9.89543 15.6046 9 14.5 9C13.3954 9 12.5 9.89543 12.5 11V31.8584L10.4743 29.6486C9.72792 28.8343 8.46279 28.7793 7.64855 29.5257C6.83431 30.2721 6.77931 31.5372 7.52569 32.3514L13.0257 38.3514C13.4045 38.7647 13.9394 39 14.5 39C15.0606 39 15.5955 38.7647 15.9743 38.3514L21.4743 32.3514C22.2207 31.5372 22.1657 30.2721 21.3514 29.5257C20.5372 28.7793 19.2721 28.8343 18.5257 29.6486L16.5 31.8584V11Z" fill="url(#paint2_linear_251_5256)"/>
<defs>
<linearGradient id="paint0_linear_251_5256" x1="42" y1="22.5469" x2="28.9716" y2="9.29832" gradientUnits="userSpaceOnUse">
<stop stop-color="#3662FD"/>
<stop offset="1" stop-color="#8673FF"/>
</linearGradient>
<linearGradient id="paint1_linear_251_5256" x1="40.5" y1="24.4375" x2="39.1731" y2="42.9462" gradientUnits="userSpaceOnUse">
<stop stop-color="#FF5018"/>
<stop offset="1" stop-color="#FF9E0D"/>
</linearGradient>
<linearGradient id="paint2_linear_251_5256" x1="25" y1="53.375" x2="-9.75189" y2="33.2759" gradientUnits="userSpaceOnUse">
<stop stop-color="#3662FD"/>
<stop offset="1" stop-color="#8673FF"/>
</linearGradient>
</defs>
</svg>
