<svg width="48" height="48" viewBox="0 0 48 48" fill="none" xmlns="http://www.w3.org/2000/svg">
<g clip-path="url(#clip0_184_6565)">
<path d="M13 20.413C13 18.8394 13.4641 17.3006 14.3343 15.9894L19.6364 8H28.3636L33.6657 15.9894C34.5359 17.3006 35 18.8394 35 20.413V38C35 41.3137 32.3137 44 29 44H19C15.6863 44 13 41.3137 13 38V20.413Z" fill="url(#paint0_linear_184_6565)"/>
<path d="M29 10L19 10C17.3431 10 16 8.65685 16 7C16 5.34315 17.3431 4 19 4L29 4C30.6569 4 32 5.34315 32 7C32 8.65685 30.6569 10 29 10Z" fill="url(#paint1_linear_184_6565)"/>
<path fill-rule="evenodd" clip-rule="evenodd" d="M23.1199 26.245C22.6602 26.0921 22.1659 26.076 21.6972 26.1988L20.6341 26.4773C19.2985 26.8272 17.9321 26.0282 17.5822 24.6925C17.2322 23.3569 18.0313 21.9905 19.367 21.6406L20.4301 21.362C21.8361 20.9937 23.3188 21.0418 24.698 21.5006L25.2123 21.6716C25.7243 21.8419 26.2776 21.842 26.7897 21.6719L27.2117 21.5317C28.522 21.0963 29.9371 21.8055 30.3725 23.1158C30.8078 24.4261 30.0986 25.8412 28.7883 26.2766L28.3663 26.4168C26.8302 26.9272 25.1702 26.927 23.6342 26.4161L23.1199 26.245ZM23.419 34.0179C22.8095 33.7567 22.1212 33.7483 21.5056 33.9946L20.9292 34.2252C19.6473 34.7381 18.1923 34.1147 17.6794 32.8328C17.1665 31.5508 17.79 30.0959 19.0719 29.583L19.6483 29.3524C21.4953 28.6134 23.5602 28.6385 25.3886 29.4222L25.4366 29.4427C25.9388 29.658 26.4977 29.7028 27.0278 29.5702L27.3937 29.4788C28.7332 29.1439 30.0905 29.9583 30.4254 31.2978C30.7602 32.6373 29.9458 33.9946 28.6063 34.3295L28.2404 34.421C26.6503 34.8185 24.9736 34.6842 23.467 34.0385L23.419 34.0179Z" fill="url(#paint2_linear_184_6565)"/>
</g>
<defs>
<linearGradient id="paint0_linear_184_6565" x1="33" y1="53" x2="3.80873" y2="13.4991" gradientUnits="userSpaceOnUse">
<stop stop-color="#2BBFFF"/>
<stop offset="1" stop-color="#0167FF"/>
</linearGradient>
<linearGradient id="paint1_linear_184_6565" x1="24.2911" y1="4.07223" x2="24.2911" y2="9.99945" gradientUnits="userSpaceOnUse">
<stop stop-color="#5BBAFF"/>
<stop offset="1" stop-color="#ACE1FF"/>
</linearGradient>
<linearGradient id="paint2_linear_184_6565" x1="20.5334" y1="35.9131" x2="30.1233" y2="17.7474" gradientUnits="userSpaceOnUse">
<stop stop-color="#ADFF99"/>
<stop offset="1" stop-color="#31E4AF"/>
</linearGradient>
<clipPath id="clip0_184_6565">
<rect width="48" height="48" fill="white"/>
</clipPath>
</defs>
</svg>
