<svg width="48" height="48" viewBox="0 0 48 48" fill="none" xmlns="http://www.w3.org/2000/svg">
<path d="M44 24C44 35.0457 35.0457 44 24 44C12.9543 44 4 35.0457 4 24C4 12.9543 12.9543 4 24 4C35.0457 4 44 12.9543 44 24Z" fill="url(#paint0_linear_65_5743)"/>
<path fill-rule="evenodd" clip-rule="evenodd" d="M16 18.8408C16 14.3553 21.0804 11.7561 24.718 14.3805L31.7673 19.4664C34.7958 21.6513 34.8128 26.1546 31.8011 28.3625L24.7518 33.5301C21.1188 36.1934 16 33.599 16 29.0944V18.8408Z" fill="url(#paint1_linear_65_5743)"/>
<defs>
<linearGradient id="paint0_linear_65_5743" x1="44" y1="53.375" x2="4.0941" y2="9.41309" gradientUnits="userSpaceOnUse">
<stop stop-color="#D5E0FF"/>
<stop offset="1" stop-color="#F0E1FF"/>
</linearGradient>
<linearGradient id="paint1_linear_65_5743" x1="5.04149" y1="12.6219" x2="42.2882" y2="38.9571" gradientUnits="userSpaceOnUse">
<stop stop-color="#2339B8"/>
<stop offset="1" stop-color="#A22BFF"/>
</linearGradient>
</defs>
</svg>
