<svg width="48" height="48" viewBox="0 0 48 48" fill="none" xmlns="http://www.w3.org/2000/svg">
<path d="M6 10H42.5M42 24H6M6 38H42" stroke="url(#paint0_linear_24_1610)" stroke-width="6" stroke-linecap="round"/>
<path d="M34 9.88889C34 12.5889 31.8112 14.7778 29.1111 14.7778C26.4111 14.7778 24.2222 12.5889 24.2222 9.88889C24.2222 7.18883 26.4111 5 29.1111 5C31.8112 5 34 7.18883 34 9.88889Z" fill="url(#paint1_linear_24_1610)"/>
<path d="M23.5 24C23.5 26.7001 21.3112 28.8889 18.6111 28.8889C15.9111 28.8889 13.7222 26.7001 13.7222 24C13.7222 21.2999 15.9111 19.1111 18.6111 19.1111C21.3112 19.1111 23.5 21.2999 23.5 24Z" fill="url(#paint2_linear_24_1610)"/>
<path d="M33.8889 38.3889C33.8889 41.0889 31.7001 43.2778 29 43.2778C26.2999 43.2778 24.1111 41.0889 24.1111 38.3889C24.1111 35.6888 26.2999 33.5 29 33.5C31.7001 33.5 33.8889 35.6888 33.8889 38.3889Z" fill="url(#paint3_linear_24_1610)"/>
<defs>
<linearGradient id="paint0_linear_24_1610" x1="14.5167" y1="40.625" x2="30.7674" y2="-1.12887" gradientUnits="userSpaceOnUse">
<stop stop-color="#ADFF99"/>
<stop offset="1" stop-color="#31E4AF"/>
</linearGradient>
<linearGradient id="paint1_linear_24_1610" x1="74.5556" y1="22.0123" x2="-95.4296" y2="43.2006" gradientUnits="userSpaceOnUse">
<stop stop-color="#043245"/>
<stop offset="1" stop-color="#2A609E"/>
</linearGradient>
<linearGradient id="paint2_linear_24_1610" x1="74.5556" y1="22.0123" x2="-95.4296" y2="43.2006" gradientUnits="userSpaceOnUse">
<stop stop-color="#043245"/>
<stop offset="1" stop-color="#2A609E"/>
</linearGradient>
<linearGradient id="paint3_linear_24_1610" x1="74.5556" y1="22.0123" x2="-95.4296" y2="43.2006" gradientUnits="userSpaceOnUse">
<stop stop-color="#043245"/>
<stop offset="1" stop-color="#2A609E"/>
</linearGradient>
</defs>
</svg>
