<svg width="48" height="48" viewBox="0 0 48 48" fill="none" xmlns="http://www.w3.org/2000/svg">
<path d="M35.4062 4H12.5938C7.84758 4 4 7.84758 4 12.5938V35.4062C4 40.1523 7.84758 44 12.5938 44H35.4062C40.1523 44 44 40.1523 44 35.4062V12.5938C44 7.84758 40.1523 4 35.4062 4Z" fill="url(#paint0_linear_758_7867)"/>
<path d="M31.7157 13.4177C30.1659 11.6579 27.8501 10.5013 25.4663 10.2881C22.3393 10.0114 19.2894 11.2542 17.3316 13.5991C16.6971 14.3612 16.1307 15.3499 15.818 16.2435C15.247 17.8717 15.188 19.7586 15.6548 21.3642L15.7273 21.6273H18.9223C20.6761 21.6273 22.1127 21.6182 22.1127 21.6092C22.1127 21.6001 22.0312 21.5048 21.927 21.396C21.1837 20.5977 20.658 19.5908 20.4314 18.5385C20.3498 18.1621 20.3272 17.9217 20.3272 17.3411C20.3272 16.6244 20.377 16.2298 20.5493 15.6266C20.6354 15.3363 20.9254 14.6514 21.0342 14.4972C21.0795 14.4337 21.1157 14.3657 21.1157 14.3475C21.1157 14.2523 21.646 13.5719 21.9995 13.2136C22.498 12.7056 22.9058 12.4017 23.4723 12.1069C24.0161 11.8302 24.4195 11.6851 25.0177 11.5535C25.634 11.413 26.6899 11.4038 27.2791 11.5309C27.764 11.6352 28.3803 11.8347 28.693 11.989C29.0555 12.1704 29.7218 12.5741 29.7263 12.6104C29.7263 12.633 29.6537 12.6467 29.5677 12.6467C29.051 12.6467 28.3078 12.9233 27.8274 13.2953C27.1023 13.8531 26.6401 14.8963 26.708 15.8126C26.767 16.5927 27.0298 17.1733 27.5691 17.7085C28.2081 18.3435 28.8335 18.6065 29.7036 18.602C30.1205 18.5975 30.261 18.5793 30.5647 18.4796C32.246 17.9171 33.0889 16.1346 32.4409 14.5017C32.314 14.1752 32.0964 13.8531 31.7157 13.4177Z" fill="url(#paint1_linear_758_7867)"/>
<path d="M28.6613 22.7836C29.1598 22.3345 29.6583 21.89 29.7716 21.7948L29.971 21.627H23.3998L22.0629 22.8153C21.3242 23.473 20.1278 24.5389 19.3936 25.1875L18.0703 26.3668L21.3423 26.3804L24.6143 26.3895L24.8047 26.2216C24.9089 26.1264 25.6159 25.4959 26.3727 24.8246C27.1295 24.1488 28.1582 23.2326 28.6613 22.7836Z" fill="url(#paint2_linear_758_7867)"/>
<path d="M33.2568 28.0738C33.2478 27.5476 33.139 26.5271 33.0846 26.4681C33.0574 26.4409 25.8291 26.3956 25.8291 26.4273C25.8291 26.4318 25.9379 26.5861 26.0693 26.7675C26.8851 27.8742 27.2793 29.0807 27.2793 30.4731C27.2793 32.1967 26.6811 33.63 25.4485 34.8501C24.6191 35.6801 23.8306 36.1337 22.7112 36.424C22.2172 36.5555 22.122 36.5645 21.3652 36.5691C20.4906 36.5736 20.3093 36.5464 19.557 36.3151C19.0041 36.1473 17.7669 35.5213 17.7624 35.4034C17.7624 35.3853 17.8394 35.3717 17.9346 35.3717C18.0343 35.3717 18.2654 35.3309 18.4603 35.2809C19.8108 34.9363 20.7716 33.6345 20.69 32.2647C20.554 29.9515 18.0524 28.6634 16.0992 29.8925C15.5282 30.2554 14.9799 31.0129 14.8258 31.6524C14.6263 32.487 14.7895 33.3986 15.2654 34.0835C15.7729 34.8138 16.9285 35.7935 18.0252 36.4285C19.0676 37.0272 20.4679 37.4989 21.7731 37.6894C22.3079 37.7711 24.0481 37.7711 24.5738 37.694C26.6403 37.39 28.4485 36.5782 29.9758 35.2719C32.0786 33.4712 33.3022 30.7816 33.2568 28.0738Z" fill="url(#paint3_linear_758_7867)"/>
<defs>
<linearGradient id="paint0_linear_758_7867" x1="5.5" y1="5" x2="38.461" y2="46.0392" gradientUnits="userSpaceOnUse">
<stop stop-color="#31A5D7"/>
<stop offset="1" stop-color="#2B1BE8"/>
</linearGradient>
<linearGradient id="paint1_linear_758_7867" x1="31" y1="11" x2="7.87657" y2="27.8563" gradientUnits="userSpaceOnUse">
<stop stop-color="#4EFFF4"/>
<stop offset="1" stop-color="#4392EF"/>
</linearGradient>
<linearGradient id="paint2_linear_758_7867" x1="31" y1="11" x2="7.87657" y2="27.8563" gradientUnits="userSpaceOnUse">
<stop stop-color="#4EFFF4"/>
<stop offset="1" stop-color="#4392EF"/>
</linearGradient>
<linearGradient id="paint3_linear_758_7867" x1="31" y1="11" x2="7.87657" y2="27.8563" gradientUnits="userSpaceOnUse">
<stop stop-color="#4EFFF4"/>
<stop offset="1" stop-color="#4392EF"/>
</linearGradient>
</defs>
</svg>
