<svg width="48" height="48" viewBox="0 0 48 48" fill="none" xmlns="http://www.w3.org/2000/svg">
<g clip-path="url(#clip0_54_5529)">
<path d="M24 16.9045V3.00049C30.5 3.00036 40 13.9045 40 16.9045H24Z" fill="url(#paint0_linear_54_5529)"/>
<path fill-rule="evenodd" clip-rule="evenodd" d="M6 11C6 6.58172 9.58172 3 14 3H24.1339C27.3138 3 28.2235 7.22911 28.7507 10.6969C28.8997 11.6773 29.7347 12.3975 30.7257 12.4343C34.9485 12.5909 40 13.4626 40 17.3333V37C40 41.4183 36.4183 45 32 45H14C9.58172 45 6 41.4183 6 37V11Z" fill="url(#paint1_linear_54_5529)"/>
<path d="M16.6 21.25H24.6M16.6 30.75H29.4" stroke="url(#paint2_linear_54_5529)" stroke-width="5" stroke-linecap="round" stroke-linejoin="round"/>
<path fill-rule="evenodd" clip-rule="evenodd" d="M40.75 29.75C40.75 28.3693 39.6307 27.25 38.25 27.25H25.75C24.3693 27.25 23.25 28.3693 23.25 29.75C23.25 31.1307 24.3693 32.25 25.75 32.25H32.2145L23.9822 40.4822C23.0059 41.4585 23.0059 43.0415 23.9822 44.0178C24.9585 44.9941 26.5415 44.9941 27.5178 44.0178L35.75 35.7855V42.25C35.75 43.6307 36.8693 44.75 38.25 44.75C39.6307 44.75 40.75 43.6307 40.75 42.25V29.75Z" fill="url(#paint3_linear_54_5529)"/>
</g>
<defs>
<linearGradient id="paint0_linear_54_5529" x1="40" y1="20.1633" x2="26.4468" y2="2.98171" gradientUnits="userSpaceOnUse">
<stop stop-color="#819CFF"/>
<stop offset="1" stop-color="#CFC8FF"/>
</linearGradient>
<linearGradient id="paint1_linear_54_5529" x1="40" y1="54.8437" x2="-1.82315" y2="17.5457" gradientUnits="userSpaceOnUse">
<stop stop-color="#3662FD"/>
<stop offset="1" stop-color="#8673FF"/>
</linearGradient>
<linearGradient id="paint2_linear_54_5529" x1="29.4" y1="32.9766" x2="20.5752" y2="19.8778" gradientUnits="userSpaceOnUse">
<stop stop-color="#D5E0FF"/>
<stop offset="1" stop-color="#F0E1FF"/>
</linearGradient>
<linearGradient id="paint3_linear_54_5529" x1="36.6667" y1="46.3906" x2="24.5421" y2="22.4929" gradientUnits="userSpaceOnUse">
<stop stop-color="#ADFF99"/>
<stop offset="1" stop-color="#31E4AF"/>
</linearGradient>
<clipPath id="clip0_54_5529">
<rect width="48" height="48" fill="white"/>
</clipPath>
</defs>
</svg>
