<svg width="48" height="48" viewBox="0 0 48 48" fill="none" xmlns="http://www.w3.org/2000/svg">
<path d="M40 26C40.7931 26 41.5107 26.4694 41.8301 27.1953C42.1492 27.9212 42.0104 28.767 41.4746 29.3516L30.4746 41.3516C29.7283 42.1658 28.4627 42.2209 27.6484 41.4746C26.8343 40.7282 26.7791 39.4627 27.5254 38.6484L35.4531 30H8C6.89543 30 6 29.1046 6 28C6.00005 26.8955 6.89546 26 8 26H40ZM17.5254 6.64844C18.2717 5.8344 19.5374 5.77929 20.3516 6.52539C21.1657 7.27171 21.2208 8.53732 20.4746 9.35156L12.5469 18H40C41.1045 18 41.9999 18.8956 42 20C42 21.1046 41.1046 22 40 22H8C7.20689 22 6.48928 21.5307 6.16992 20.8047C5.85089 20.0789 5.98965 19.2329 6.52539 18.6484L17.5254 6.64844Z" fill="url(#paint0_linear_752_7918)"/>
<defs>
<linearGradient id="paint0_linear_752_7918" x1="56" y1="14.3078" x2="0.461736" y2="27.8587" gradientUnits="userSpaceOnUse">
<stop stop-color="#FF9900"/>
<stop offset="1" stop-color="#FFD951"/>
</linearGradient>
</defs>
</svg>
