<svg width="48" height="48" viewBox="0 0 48 48" fill="none" xmlns="http://www.w3.org/2000/svg">
<g clip-path="url(#clip0_748_7206)">
<path d="M33.0185 8C34.4878 8.0034 35.9416 8.30077 37.2941 8.87457C38.6467 9.44837 39.8705 10.287 40.8936 11.341C41.9167 12.395 42.7182 13.643 43.251 15.0115C43.7837 16.38 44.0369 17.8412 43.9957 19.3091C43.9544 20.7769 43.6194 22.2216 43.0106 23.558C42.4017 24.8945 41.5313 26.0955 40.4506 27.0904C39.3699 28.0853 38.1008 28.8539 36.7181 29.3509C35.3355 29.8478 33.8673 30.0631 32.4001 29.984L32.244 29.97L24.9473 35.018L24.9253 35.206C24.391 38.756 21.5091 41.566 17.7788 41.966L17.3605 42H17.0083C15.3686 42.0002 13.7683 41.4972 12.424 40.5589C11.0796 39.6207 10.056 38.2925 9.4915 36.754L9.45948 36.658L5.21277 34.838C4.89009 34.6998 4.60946 34.4792 4.39904 34.1984C4.18863 33.9176 4.05584 33.5863 4.01401 33.238L4 33V26C4.00018 25.6592 4.08749 25.3241 4.25365 25.0265C4.41981 24.729 4.6593 24.4787 4.94939 24.2996C5.23949 24.1205 5.57057 24.0184 5.91123 24.0031C6.25188 23.9878 6.59081 24.0597 6.89584 24.212L12.8276 27.174L13.1758 26.974C14.4915 26.2564 15.9823 25.9224 17.4786 26.01L17.8108 26.038L22.0655 20.084L22.0455 19.888C21.8273 17.1996 22.605 14.5248 24.2309 12.372L24.5691 11.948C25.6023 10.7119 26.8946 9.71756 28.3546 9.03536C29.8147 8.35317 31.4068 7.99972 33.0185 8ZM33.0185 15C31.9569 15 30.9389 15.4214 30.1882 16.1716C29.4376 16.9217 29.0159 17.9391 29.0159 19C29.0159 20.0609 29.4376 21.0783 30.1882 21.8284C30.9389 22.5786 31.9569 23 33.0185 23C34.08 23 35.0981 22.5786 35.8487 21.8284C36.5993 21.0783 37.021 20.0609 37.021 19C37.021 17.9391 36.5993 16.9217 35.8487 16.1716C35.0981 15.4214 34.08 15 33.0185 15Z" fill="url(#paint0_linear_748_7206)"/>
</g>
<defs>
<linearGradient id="paint0_linear_748_7206" x1="5.68109" y1="42.4756" x2="52.7869" y2="16.384" gradientUnits="userSpaceOnUse">
<stop stop-color="#2BBFFF"/>
<stop offset="1" stop-color="#F4A7F7"/>
</linearGradient>
<clipPath id="clip0_748_7206">
<rect width="48" height="48" fill="white"/>
</clipPath>
</defs>
</svg>
