<svg width="48" height="48" viewBox="0 0 48 48" fill="none" xmlns="http://www.w3.org/2000/svg">
<path d="M16.7363 5.23047C18.2709 4.26417 20.0885 3.84777 21.8906 4.0498C23.6087 4.24249 25.2152 4.98715 26.4727 6.16699C27.1878 6.00704 27.9271 5.9593 28.6631 6.0293C29.9244 6.14933 31.1301 6.60924 32.1504 7.36035C33.1707 8.11152 33.9677 9.12618 34.457 10.2949C34.9463 11.4637 35.1096 12.744 34.9287 13.998C34.8282 14.6947 34.6225 15.3688 34.3232 15.999H37C38.1046 15.999 39 16.8945 39 17.999V27.999C39 30.6512 37.9467 33.1949 36.0713 35.0703C34.4992 36.6424 32.457 37.6335 30.2754 37.9141C29.9281 39.0251 29.4355 40.0236 28.7432 40.8809C26.8779 43.1901 24.0107 43.999 20.5 43.999C17.3951 43.999 14.6512 43.1445 12.7158 41.041C10.8093 38.9687 10 36.0195 10 32.499V17.999C10 17.4686 10.2109 16.96 10.5859 16.585C10.961 16.2099 11.4696 15.999 12 15.999H14.043C13.8152 15.5754 13.619 15.1282 13.4531 14.6572C12.8508 12.9467 12.848 11.0818 13.4443 9.36914C14.0408 7.65648 15.2018 6.19695 16.7363 5.23047ZM14 32.499C14 35.4783 14.6909 37.2793 15.6592 38.332C16.5988 39.3534 18.105 39.999 20.5 39.999C23.4892 39.999 24.8721 39.3078 25.6318 38.3672C26.486 37.3095 27 35.4195 27 31.999V19.999H21.0332C21.0033 19.9992 20.9733 19.9992 20.9434 19.999H14V32.499ZM31 31.999C31 32.5678 30.9848 33.1247 30.957 33.668C31.809 33.3737 32.5927 32.8907 33.2422 32.2412C34.3674 31.116 35 29.5903 35 27.999V19.999H31V31.999ZM21.4453 8.02539C20.5442 7.9244 19.6345 8.13202 18.8672 8.61523C18.1 9.09847 17.5199 9.82834 17.2217 10.6846C16.9235 11.5409 16.9253 12.4738 17.2266 13.3291C17.4886 14.073 17.7887 14.5415 18.123 14.876C18.4575 15.2104 18.9261 15.5104 19.6699 15.7725C20.5252 16.0737 21.4581 16.0755 22.3145 15.7773C22.6454 15.6621 22.9569 15.5036 23.2432 15.3096C23.366 15.1859 23.5003 15.0801 23.6445 14.9951C23.9282 14.7447 24.1793 14.4565 24.3838 14.1318C24.8671 13.3645 25.0747 12.4549 24.9736 11.5537C24.9009 10.9065 24.6695 10.2928 24.3086 9.75977C24.2519 9.69122 24.1983 9.61918 24.1504 9.54199C24.05 9.41329 23.9436 9.28831 23.8271 9.17188C23.186 8.53085 22.3463 8.12655 21.4453 8.02539ZM28.7695 10.0996C28.8504 10.4303 28.9109 10.7671 28.9492 11.1084C29.1398 12.8074 28.7791 14.5188 27.9277 15.9951C28.2994 16.004 28.6713 15.9461 29.0234 15.8184C29.5337 15.6331 29.9845 15.3127 30.3271 14.8916C30.6697 14.4705 30.8922 13.964 30.9697 13.4268C31.0472 12.8894 30.9772 12.3406 30.7676 11.8398C30.5579 11.339 30.2156 10.904 29.7783 10.582C29.4743 10.3583 29.1316 10.1957 28.7695 10.0996Z" fill="url(#paint0_linear_752_7901)"/>
<defs>
<linearGradient id="paint0_linear_752_7901" x1="14.35" y1="-1.62486" x2="49.7723" y2="28.9995" gradientUnits="userSpaceOnUse">
<stop stop-color="#EB70FF"/>
<stop offset="1" stop-color="#5C6DFF"/>
</linearGradient>
</defs>
</svg>
