<svg width="48" height="48" viewBox="0 0 48 48" fill="none" xmlns="http://www.w3.org/2000/svg">
<g clip-path="url(#clip0_722_7332)">
<path d="M35.095 45V3H35.9972C36.189 3 36.3767 3.05513 36.538 3.15882L43.285 7.49615C44.1436 8.04815 44.6627 8.9989 44.6627 10.0197V37.8141C44.6627 38.8485 44.1298 39.8099 43.2527 40.3581L36.2909 44.7092C36.2909 44.7092 35.7584 45 35.095 45Z" fill="url(#paint0_linear_722_7332)"/>
<path d="M18.7462 28.4816L10.1153 35.9355C9.30904 36.6318 8.16318 36.775 7.21034 36.2986C5.61802 35.5025 5.25475 33.3903 6.48956 32.1079L14.3642 23.9298M18.5142 19.6195L33.8991 3.6443C33.8991 3.6443 34.4971 2.99981 35.0951 3.00098V14.3621L23.6258 24.267" fill="url(#paint1_linear_722_7332)"/>
<path d="M23.6258 23.5923L10.1153 11.9238C9.30905 11.2275 8.16317 11.0843 7.21031 11.5607C5.61801 12.3569 5.25474 14.469 6.48955 15.7514L14.3642 23.9295M14.3642 23.9295L34.2862 44.6169C34.2862 44.6169 34.6419 44.999 35.0951 44.999V33.4972L23.6258 23.5923" fill="url(#paint2_linear_722_7332)"/>
</g>
<defs>
<linearGradient id="paint0_linear_722_7332" x1="39.8788" y1="-3" x2="15.542" y2="14.0868" gradientUnits="userSpaceOnUse">
<stop stop-color="#4EFFF4"/>
<stop offset="1" stop-color="#4392EF"/>
</linearGradient>
<linearGradient id="paint1_linear_722_7332" x1="36.889" y1="1.80385" x2="6.37197" y2="36.1993" gradientUnits="userSpaceOnUse">
<stop stop-color="#2BBFFF"/>
<stop offset="1" stop-color="#0167FF"/>
</linearGradient>
<linearGradient id="paint2_linear_722_7332" x1="5.79395" y1="10.7739" x2="32.4571" y2="47.3784" gradientUnits="userSpaceOnUse">
<stop stop-color="#2BBFFF"/>
<stop offset="1" stop-color="#0167FF"/>
</linearGradient>
<clipPath id="clip0_722_7332">
<rect width="48" height="48" fill="white"/>
</clipPath>
</defs>
</svg>
