<svg width="48" height="48" viewBox="0 0 48 48" fill="none" xmlns="http://www.w3.org/2000/svg">
<g clip-path="url(#clip0_738_7912)">
<path d="M36.9939 8.81829C40.6226 11.9151 43.0248 16.2069 43.7672 20.9193C44.5095 25.6316 43.5429 30.4541 41.042 34.5165C38.541 38.5788 34.6704 41.6135 30.1286 43.0727C25.5868 44.532 20.673 44.3197 16.2739 42.4743L15.8279 42.2783L6.30991 43.9763L6.08991 43.9983C6.01663 44.0023 5.94319 44.0023 5.86991 43.9983L5.66591 43.9723L5.44991 43.9243L5.23991 43.8503L5.04191 43.7563L4.85591 43.6403L4.82791 43.6183L4.80391 43.6043L4.63191 43.4583L4.47791 43.2983L4.34391 43.1223L4.23191 42.9343L4.16391 42.7943L4.08391 42.5783L4.02791 42.3223L4.00391 42.1183C3.9987 42.035 3.9987 41.9515 4.00391 41.8683L4.02791 41.6683L4.07591 41.4483L4.16591 41.2043L7.03191 34.5963L7.01391 34.5683C4.60942 30.6866 3.60555 26.099 4.16913 21.5678C4.73271 17.0366 6.82979 12.8347 10.1119 9.66029L10.5419 9.25429C14.142 5.97323 18.8156 4.11873 23.6859 4.03883C28.5562 3.95892 33.2882 5.6571 36.9939 8.81829ZM18.9999 15.0003C18.2043 15.0003 17.4412 15.3164 16.8786 15.879C16.316 16.4416 15.9999 17.2046 15.9999 18.0003V20.0003C15.9999 23.1829 17.2642 26.2351 19.5146 28.4856C21.7651 30.736 24.8173 32.0003 27.9999 32.0003H29.9999C30.7956 32.0003 31.5586 31.6842 32.1212 31.1216C32.6838 30.559 32.9999 29.7959 32.9999 29.0003C32.9999 28.2046 32.6838 27.4416 32.1212 26.879C31.5586 26.3164 30.7956 26.0003 29.9999 26.0003H27.9999L27.7119 26.0143C27.2542 26.0582 26.8127 26.2068 26.4215 26.4485C26.0303 26.6902 25.7 27.0186 25.4559 27.4083L25.3719 27.5563L25.3279 27.5423C24.2054 27.1432 23.1859 26.4991 22.3435 25.6567C21.5011 24.8143 20.857 23.7948 20.4579 22.6723L20.4419 22.6263L20.5919 22.5443C21.023 22.2744 21.3784 21.8993 21.6247 21.4543C21.871 21.0093 22.0001 20.5089 21.9999 20.0003V18.0003C21.9999 17.2046 21.6838 16.4416 21.1212 15.879C20.5586 15.3164 19.7956 15.0003 18.9999 15.0003Z" fill="url(#paint0_linear_738_7912)"/>
</g>
<defs>
<linearGradient id="paint0_linear_738_7912" x1="4" y1="-4.53428" x2="23.9918" y2="47.6076" gradientUnits="userSpaceOnUse">
<stop stop-color="#3A9AE8"/>
<stop offset="1" stop-color="#0CAC77"/>
</linearGradient>
<clipPath id="clip0_738_7912">
<rect width="48" height="48" fill="white"/>
</clipPath>
</defs>
</svg>
