<svg width="48" height="48" viewBox="0 0 48 48" fill="none" xmlns="http://www.w3.org/2000/svg">
<path d="M36 12.5C36.4043 12.0086 36.9211 11.3209 36.8529 9.96126C36.7825 8.59938 36.0894 6.7016 33.2443 5.32422C33.1937 5.29986 33.1431 5.2755 33.0903 5.25114C31.2398 4.39194 28.5421 3.77633 25.3956 4.07749C22.951 4.31222 20.4118 5.08949 18.0178 6.46023C15.8636 7.68924 13.8789 9.37222 12.2682 11.4538C11.3221 12.7625 10.4969 14.244 9.90723 15.8428C9.65199 16.5337 9.44076 17.249 9.28233 17.9798C9.07769 18.9297 8.96548 19.9683 9.00948 21.0645C9.1261 22.8028 9.64099 24.7028 10.7918 26.4123C11.3353 27.2228 12.0108 27.958 12.7919 28.5714C13.5686 29.1848 14.4576 29.6809 15.4279 30.0064C16.9836 30.5179 18.5129 30.5179 19.7781 30.3253C20.4492 30.2234 21.0653 30.0662 21.6088 29.8912C22.2799 29.6764 22.896 29.4284 23.3823 29.218C24.4428 28.7508 25.4374 28.1905 26.2295 27.7388C27.0217 27.287 27.7984 26.8331 28.5443 26.4655C28.9888 26.2529 29.5169 26.016 30.0384 25.8366C30.177 25.7901 30.3156 25.7458 30.4542 25.7082C30.9735 25.5642 31.4862 25.5 31.9417 25.5465C32.3311 25.5841 32.6612 25.7126 32.8834 25.8698C32.9781 25.9296 33.0595 26.0137 33.1277 26.1023C33.1871 26.1843 33.2267 26.2618 33.2487 26.3038C33.2729 26.357 33.2861 26.4655 33.2443 26.6227C33.2047 26.7822 33.1189 26.966 32.9869 27.1498C32.8504 27.338 32.6612 27.5328 32.406 27.7344C32.1551 27.9292 31.8559 28.1197 31.5082 28.3035C30.7447 28.6733 29.9856 28.9213 28.9184 29.3221C27.9502 29.6853 26.795 30.1547 25.7125 30.8988C25.1448 31.3018 24.5771 31.8045 24.0886 32.4135C23.6023 33.0224 23.1798 33.7576 22.9444 34.6191C22.7332 35.4805 22.7222 36.4371 23.006 37.3561C23.149 37.8234 23.3691 38.2662 23.6507 38.6604C23.9368 39.059 24.2954 39.42 24.7201 39.7078C25.4748 40.2127 26.3065 40.3988 27.0261 40.4187H27.2703C27.8798 40.4032 28.4607 40.277 28.991 40.0976C29.5455 39.9271 30.0472 39.6968 30.4784 39.493C30.9185 39.2827 31.2574 39.1122 31.6116 38.9704C31.9351 38.8265 32.2167 38.7335 32.472 38.6936C32.714 38.656 32.912 38.6737 33.0551 38.7136C33.1189 38.7313 33.1761 38.7601 33.2223 38.7889C33.2663 38.8176 33.2971 38.8442 33.3125 38.8575C33.3367 38.8686 33.3587 38.8863 33.3741 38.8907C33.3917 38.8907 33.4071 38.8996 33.4291 38.8951C33.4489 38.8907 33.4291 38.9616 33.3499 39.0546C33.2575 39.1631 33.1233 39.2716 32.9164 39.4333C32.7162 39.5861 32.4434 39.7876 32.1947 40.0356C31.9197 40.308 31.6512 40.6534 31.4862 41.0808C31.3212 41.5126 31.2948 41.9555 31.363 42.3452C31.4422 42.7992 31.6512 43.1712 31.8933 43.4348C32.2189 43.7935 32.5974 43.9463 32.8768 43.9884C32.945 43.9972 33.0089 44.0016 33.0683 43.9994C33.5656 43.9817 33.7658 43.5986 33.8538 43.4857C33.7306 43.3683 33.6052 43.0672 33.5061 42.8103C33.4951 42.7815 33.4841 42.7549 33.4753 42.7261C33.4357 42.6132 33.4005 42.4892 33.4093 42.3785C33.4137 42.2987 33.4335 42.2146 33.4709 42.1614C33.5017 42.1149 33.5457 42.0729 33.5854 42.0574C33.625 42.0397 33.691 41.9865 33.8098 41.9134C33.9572 41.8249 34.0606 41.7739 34.3225 41.6322C34.5271 41.5237 34.8308 41.3554 35.1212 41.1273C35.4117 40.8992 35.7461 40.5671 35.9838 40.1042C36.195 39.6901 36.2984 39.2317 36.2984 38.78C36.3006 38.3282 36.1994 37.8898 36.0234 37.4978C35.8385 37.1037 35.5833 36.7671 35.2928 36.4903C35.0002 36.2112 34.6679 35.9898 34.3203 35.8237C33.6228 35.4938 32.8878 35.4008 32.2431 35.4251C31.5764 35.4495 30.9647 35.6001 30.4608 35.7595C29.9636 35.9278 29.4487 36.1492 29.0834 36.2976C28.6631 36.4681 28.3397 36.5855 28.0338 36.6563C27.7456 36.7073 27.5278 36.7029 27.3693 36.6674C27.3495 36.663 27.3297 36.6586 27.3099 36.6519C27.1493 36.601 27.0613 36.5124 27.0855 36.4681C27.0987 36.4504 27.1009 36.4283 27.1053 36.3906C27.1097 36.3552 27.1141 36.3153 27.1317 36.2799C27.1581 36.2046 27.2021 36.074 27.2923 35.9522C27.3583 35.8171 27.4683 35.6643 27.6488 35.4916C27.8336 35.3144 28.0756 35.135 28.3661 34.9756C28.9514 34.6213 29.6489 34.3578 30.5533 34.0721C31.3894 33.8064 32.5358 33.4808 33.5898 33.0402C34.1574 32.8143 34.7471 32.5375 35.3192 32.1876C35.9045 31.8311 36.4832 31.3926 37.0113 30.8501C37.5592 30.2832 38.0345 29.6144 38.3843 28.8659C38.743 28.0953 38.9762 27.2206 38.9983 26.2839C39.0203 25.3605 38.8332 24.488 38.5208 23.7174C38.1995 22.918 37.7308 22.2005 37.1719 21.6004C35.9882 20.3293 34.4897 19.6384 33.1431 19.3394C31.583 18.9918 30.1198 19.1202 28.9954 19.3593C28.6829 19.428 28.3881 19.5033 28.113 19.5852C27.0745 19.893 26.2119 20.3071 25.6068 20.6282C24.6233 21.1398 23.6441 21.762 22.9774 22.1717C22.2029 22.6478 21.5098 23.0597 20.8144 23.3763C20.5042 23.5203 20.1653 23.6487 19.8133 23.7373C19.5316 23.8059 19.2566 23.8524 18.9859 23.8657C18.4689 23.8923 18.0332 23.7993 17.7383 23.6288C17.5667 23.5358 17.3907 23.4007 17.23 23.2235C17.0694 23.0442 16.933 22.836 16.8406 22.6146C16.6293 22.123 16.5633 21.5273 16.6558 20.9626C16.68 20.6105 16.757 20.2562 16.878 19.9041C16.9726 19.6317 17.1024 19.3549 17.2675 19.0759C17.6547 18.4204 18.2158 17.8004 18.8737 17.2667C19.8969 16.3167 21.0939 15.6302 22.3085 15.1851C23.6595 14.6891 24.9533 14.5186 26.0887 14.5097C27.541 14.5009 28.8414 14.7511 29.8601 14.8707C29.8887 14.8729 29.9173 14.8773 29.946 14.8795C31.5566 15.0589 32.791 14.6802 33.8868 14.1532C34.9496 13.6439 35.6225 12.9588 36 12.5Z" fill="url(#paint0_linear_733_7224)"/>
<defs>
<linearGradient id="paint0_linear_733_7224" x1="16" y1="47.75" x2="47.8758" y2="0.62923" gradientUnits="userSpaceOnUse">
<stop stop-color="#ADFF99"/>
<stop offset="1" stop-color="#31E4AF"/>
</linearGradient>
</defs>
</svg>
