<svg width="48" height="48" viewBox="0 0 48 48" fill="none" xmlns="http://www.w3.org/2000/svg">
<path fill-rule="evenodd" clip-rule="evenodd" d="M23.9971 7L24 7C25.6992 7 27.4369 7.04202 29.1163 7.11041L29.1268 7.11083L31.0956 7.20137L32.9887 7.30933L34.7614 7.42486L36.3714 7.5454L36.3727 7.54549C38.5603 7.70678 40.6316 8.60504 42.2185 10.0999C43.8073 11.5966 44.8094 13.5978 45.0277 15.7569L45.0284 15.7633L45.1075 16.5722L45.2555 18.2989L45.2562 18.3073C45.3951 20.1067 45.5 22.0888 45.5 24C45.5 25.9112 45.3951 27.8933 45.2562 29.6927L45.2555 29.7011L45.1074 31.4294C45.0819 31.7052 45.0557 31.9777 45.0273 32.2473C44.808 34.4052 43.8059 36.4051 42.2175 37.9009C40.6301 39.3958 38.5581 40.2939 36.37 40.4546L36.3689 40.4546L34.7634 40.5733L32.9916 40.6906L31.0955 40.7986L29.1268 40.8891L29.1184 40.8895C27.4142 40.9607 25.7087 40.9976 24.0029 41H23.9972C22.2914 40.9976 20.5858 40.9607 18.8816 40.8895L18.8733 40.8892L16.9045 40.7986L15.0103 40.6906L13.2388 40.5733L11.6287 40.4546C9.44061 40.2936 7.36879 39.3953 5.78158 37.9001C4.1927 36.4034 3.19064 34.4022 2.97232 32.2431L2.97169 32.2367L2.89251 31.4278L2.74523 29.7096L2.74444 29.7C2.59127 27.8069 2.50976 25.9091 2.50005 24.0102L2.5 24C2.5 22.0888 2.60495 20.1067 2.74386 18.3073L2.74451 18.2989L2.89265 16.5706C2.9182 16.2947 2.94435 16.0221 2.97278 15.7524C3.19196 13.5954 4.19337 11.5963 5.78063 10.1007C7.36704 8.60584 9.4378 7.70734 11.625 7.54553L11.6262 7.54543L13.2347 7.42487L15.0076 7.30933L16.9026 7.20137L18.8797 7.11048C20.5846 7.03929 22.2907 7.00247 23.9971 7Z" fill="url(#paint0_linear_722_7376)"/>
<path fill-rule="evenodd" clip-rule="evenodd" d="M25.4207 14.6445C25.9374 14.6445 26.3562 15.0634 26.3562 15.5801V16.3668C26.3562 16.6558 26.5812 17.0488 27.3848 17.6952C27.6819 17.9342 28.0081 18.1706 28.3656 18.4297C28.4577 18.4965 28.5519 18.5647 28.6481 18.6349C29.105 18.968 29.596 19.3353 30.0499 19.7416C30.9493 20.5468 31.8169 21.6043 31.9747 23.042C32.133 24.4839 31.5523 26.0617 30.1296 27.8554C29.8574 28.1987 29.3834 28.3071 28.9891 28.1162C28.5947 27.9253 28.3857 27.4863 28.486 27.0598C28.6721 26.2688 28.5589 25.7241 28.3391 25.2993C28.1028 24.8423 27.7026 24.4452 27.1798 24.0324C26.9762 23.8717 26.7714 23.7215 26.5568 23.5642C26.4954 23.5192 26.4333 23.4737 26.3702 23.4271C26.3655 23.4237 26.3609 23.4202 26.3562 23.4168V28.0925C26.3562 30.9446 24.2262 33.3551 21.2888 33.3551H20.6604C18.1147 33.3551 16.0654 31.2748 16.0654 28.7267C16.0654 25.9557 18.4726 23.792 21.2217 24.1329L21.2258 24.1334L24.4852 24.552V15.5801C24.4852 15.0634 24.904 14.6445 25.4207 14.6445Z" fill="url(#paint1_linear_722_7376)"/>
<defs>
<linearGradient id="paint0_linear_722_7376" x1="31.3553" y1="47.7413" x2="22.3784" y2="-0.326907" gradientUnits="userSpaceOnUse">
<stop stop-color="#D80000"/>
<stop offset="1" stop-color="#FF7A00"/>
</linearGradient>
<linearGradient id="paint1_linear_722_7376" x1="24.0327" y1="12.7735" x2="24.0327" y2="33.3551" gradientUnits="userSpaceOnUse">
<stop stop-color="#FFFBDB"/>
<stop offset="1" stop-color="#FFDBA5"/>
</linearGradient>
</defs>
</svg>
